{
    "asset" : {
        "generator" : "Khronos glTF Blender I/O v3.4.50",
        "version" : "2.0"
    },
    "extensionsUsed" : [
        "KHR_materials_specular",
        "KHR_materials_ior"
    ],
    "scene" : 0,
    "scenes" : [
        {
            "name" : "Scene",
            "nodes" : [
                0,
                1
            ]
        }
    ],
    "nodes" : [
        {
            "mesh" : 0,
            "name" : "front-window-glass.002",
            "translation" : [
                -46.012550354003906,
                4.610839366912842,
                0
            ]
        },
        {
            "mesh" : 1,
            "name" : "hull.002",
            "translation" : [
                -46.012550354003906,
                4.610839366912842,
                0
            ]
        }
    ],
    "materials" : [
        {
            "alphaMode" : "BLEND",
            "doubleSided" : true,
            "extensions" : {
                "KHR_materials_specular" : {
                    "specularColorFactor" : [
                        0,
                        0,
                        0
                    ]
                },
                "KHR_materials_ior" : {
                    "ior" : 1.4500000476837158
                }
            },
            "name" : "Window",
            "pbrMetallicRoughness" : {
                "baseColorFactor" : [
                    0.8006561994552612,
                    0.8006561994552612,
                    0.8006561994552612,
                    0.1996062994003296
                ],
                "metallicFactor" : 0,
                "roughnessFactor" : 0
            }
        },
        {
            "doubleSided" : true,
            "name" : "window sides",
            "pbrMetallicRoughness" : {
                "baseColorFactor" : [
                    0.800000011920929,
                    0.800000011920929,
                    0.800000011920929,
                    1
                ],
                "metallicFactor" : 1,
                "roughnessFactor" : 0
            }
        },
        {
            "doubleSided" : true,
            "name" : "hull",
            "pbrMetallicRoughness" : {
                "baseColorFactor" : [
                    1,
                    1,
                    1,
                    1
                ],
                "metallicFactor" : 1,
                "roughnessFactor" : 0
            }
        },
        {
            "doubleSided" : true,
            "name" : "interior",
            "pbrMetallicRoughness" : {
                "baseColorFactor" : [
                    0.06071966513991356,
                    0.06071966513991356,
                    0.06071966513991356,
                    1
                ],
                "metallicFactor" : 0,
                "roughnessFactor" : 1
            }
        }
    ],
    "meshes" : [
        {
            "name" : "Cube.014",
            "primitives" : [
                {
                    "attributes" : {
                        "POSITION" : 0
                    },
                    "indices" : 1,
                    "material" : 0
                },
                {
                    "attributes" : {
                        "POSITION" : 2
                    },
                    "indices" : 3,
                    "material" : 1
                }
            ]
        },
        {
            "name" : "Cube.013",
            "primitives" : [
                {
                    "attributes" : {
                        "POSITION" : 4
                    },
                    "indices" : 5,
                    "material" : 2
                },
                {
                    "attributes" : {
                        "POSITION" : 6
                    },
                    "indices" : 7,
                    "material" : 3
                }
            ]
        }
    ],
    "accessors" : [
        {
            "bufferView" : 0,
            "componentType" : 5126,
            "count" : 16,
            "max" : [
                22.620065689086914,
                5.147119045257568,
                -40.59160614013672
            ],
            "min" : [
                -22.620065689086914,
                -5.147119045257568,
                -41.33042907714844
            ],
            "type" : "VEC3"
        },
        {
            "bufferView" : 1,
            "componentType" : 5123,
            "count" : 36,
            "type" : "SCALAR"
        },
        {
            "bufferView" : 2,
            "componentType" : 5126,
            "count" : 16,
            "max" : [
                22.620065689086914,
                5.147119045257568,
                -40.59160614013672
            ],
            "min" : [
                -22.620065689086914,
                -5.147119045257568,
                -41.33042907714844
            ],
            "type" : "VEC3"
        },
        {
            "bufferView" : 3,
            "componentType" : 5123,
            "count" : 48,
            "type" : "SCALAR"
        },
        {
            "bufferView" : 4,
            "componentType" : 5126,
            "count" : 248,
            "max" : [
                27.196369171142578,
                5.473541736602783,
                41.575645446777344
            ],
            "min" : [
                -27.196369171142578,
                -5.473541736602783,
                -41.575645446777344
            ],
            "type" : "VEC3"
        },
        {
            "bufferView" : 5,
            "componentType" : 5123,
            "count" : 828,
            "type" : "SCALAR"
        },
        {
            "bufferView" : 6,
            "componentType" : 5126,
            "count" : 276,
            "max" : [
                24.09991455078125,
                5.263509273529053,
                41.575645446777344
            ],
            "min" : [
                -24.09991455078125,
                -5.263509273529053,
                -41.575645446777344
            ],
            "type" : "VEC3"
        },
        {
            "bufferView" : 7,
            "componentType" : 5123,
            "count" : 780,
            "type" : "SCALAR"
        }
    ],
    "bufferViews" : [
        {
            "buffer" : 0,
            "byteLength" : 192,
            "byteOffset" : 0,
            "target" : 34962
        },
        {
            "buffer" : 0,
            "byteLength" : 72,
            "byteOffset" : 192,
            "target" : 34963
        },
        {
            "buffer" : 0,
            "byteLength" : 192,
            "byteOffset" : 264,
            "target" : 34962
        },
        {
            "buffer" : 0,
            "byteLength" : 96,
            "byteOffset" : 456,
            "target" : 34963
        },
        {
            "buffer" : 0,
            "byteLength" : 2976,
            "byteOffset" : 552,
            "target" : 34962
        },
        {
            "buffer" : 0,
            "byteLength" : 1656,
            "byteOffset" : 3528,
            "target" : 34963
        },
        {
            "buffer" : 0,
            "byteLength" : 3312,
            "byteOffset" : 5184,
            "target" : 34962
        },
        {
            "buffer" : 0,
            "byteLength" : 1560,
            "byteOffset" : 8496,
            "target" : 34963
        }
    ],
    "buffers" : [
        {
            "byteLength" : 10056,
            "uri" : "hugepit.bin"
        }
    ]
}
