{
	"asset":{
		"generator":"Khronos glTF Blender I/O v3.5.30",
		"version":"2.0"
	},
	"extensionsUsed":[
		"KHR_materials_specular",
		"KHR_materials_ior"
	],
	"scene":0,
	"scenes":[
		{
			"name":"Scene",
			"nodes":[
				2,
				3,
				4,
				5,
				6,
				7,
				8,
				9,
				10,
				11,
				12
			]
		}
	],
	"nodes":[
		{
			"mesh":0,
			"name":"walls"
		},
		{
			"mesh":1,
			"name":"window"
		},
		{
			"children":[
				0,
				1
			],
			"mesh":2,
			"name":"hull",
			"translation":[
				0,
				0.31851130723953247,
				-0.2693653404712677
			]
		},
		{
			"mesh":3,
			"name":"nacelle-left-hinge-1-spars",
			"translation":[
				-2.0285067558288574,
				1.383100986480713,
				1.0740000009536743
			]
		},
		{
			"mesh":4,
			"name":"nacelle-left-hinge-2-spars",
			"translation":[
				-2.0489978790283203,
				1.401340365409851,
				1.0740009546279907
			]
		},
		{
			"mesh":5,
			"name":"nacelle-left",
			"translation":[
				-2.0489978790283203,
				1.2329316139221191,
				1.0740009546279907
			]
		},
		{
			"mesh":6,
			"name":"nacelle-left-mechanism",
			"translation":[
				-2.0490000247955322,
				1.1817387342453003,
				1.0740000009536743
			]
		},
		{
			"mesh":7,
			"name":"nacelle-right-hinge-1-spars",
			"translation":[
				2.0285067558288574,
				1.383100986480713,
				1.0740000009536743
			]
		},
		{
			"mesh":8,
			"name":"nacelle-right-hinge-2-spars",
			"translation":[
				2.0489978790283203,
				1.401340365409851,
				1.0740009546279907
			]
		},
		{
			"mesh":9,
			"name":"nacelle-right",
			"translation":[
				2.0489978790283203,
				1.2329316139221191,
				1.0740009546279907
			]
		},
		{
			"mesh":10,
			"name":"nacelle-right-mechanism",
			"translation":[
				2.0490000247955322,
				1.1817387342453003,
				1.0740000009536743
			]
		},
		{
			"mesh":11,
			"name":"seat1",
			"translation":[
				-0.7573621869087219,
				0.36901384592056274,
				-0.9855178594589233
			]
		},
		{
			"mesh":12,
			"name":"seat2",
			"translation":[
				0.7573620080947876,
				0.36901384592056274,
				-0.9855178594589233
			]
		}
	],
	"materials":[
		{
			"doubleSided":true,
			"name":"Hull",
			"pbrMetallicRoughness":{
				"baseColorFactor":[
					1,
					1,
					1,
					1
				],
				"metallicFactor":0,
				"roughnessFactor":0
			}
		},
		{
			"alphaMode":"BLEND",
			"doubleSided":true,
			"extensions":{
				"KHR_materials_specular":{
					"specularColorFactor":[
						0,
						0,
						0
					]
				},
				"KHR_materials_ior":{
					"ior":1.4500000476837158
				}
			},
			"name":"Glass",
			"pbrMetallicRoughness":{
				"baseColorFactor":[
					0.6000000238418579,
					0.6499999761581421,
					0.75,
					0.4000000059604645
				],
				"metallicFactor":0,
				"roughnessFactor":0
			}
		},
		{
			"doubleSided":true,
			"name":"HeatShield",
			"pbrMetallicRoughness":{
				"baseColorFactor":[
					0.018848741427063942,
					0.018848741427063942,
					0.018848741427063942,
					1
				],
				"metallicFactor":0,
				"roughnessFactor":1
			}
		},
		{
			"doubleSided":true,
			"name":"hinge",
			"pbrMetallicRoughness":{
				"baseColorFactor":[
					0.800000011920929,
					0.800000011920929,
					0.800000011920929,
					1
				],
				"metallicFactor":1,
				"roughnessFactor":0
			}
		},
		{
			"doubleSided":true,
			"name":"door",
			"pbrMetallicRoughness":{
				"baseColorFactor":[
					0.06372056156396866,
					0.06372056156396866,
					0.06372056156396866,
					1
				],
				"metallicFactor":0,
				"roughnessFactor":1
			}
		}
	],
	"meshes":[
		{
			"name":"Cube.008",
			"primitives":[
				{
					"attributes":{
						"POSITION":0,
						"NORMAL":1
					},
					"indices":2,
					"material":0
				}
			]
		},
		{
			"name":"Mesh",
			"primitives":[
				{
					"attributes":{
						"POSITION":3,
						"NORMAL":4
					},
					"indices":5,
					"material":1
				}
			]
		},
		{
			"name":"Cube",
			"primitives":[
				{
					"attributes":{
						"POSITION":6,
						"NORMAL":7
					},
					"indices":8,
					"material":2
				},
				{
					"attributes":{
						"POSITION":9,
						"NORMAL":10
					},
					"indices":11,
					"material":0
				}
			]
		},
		{
			"name":"Cube.012",
			"primitives":[
				{
					"attributes":{
						"POSITION":12,
						"NORMAL":13
					},
					"indices":14,
					"material":3
				}
			]
		},
		{
			"name":"Cylinder.001",
			"primitives":[
				{
					"attributes":{
						"POSITION":15,
						"NORMAL":16
					},
					"indices":17,
					"material":3
				}
			]
		},
		{
			"name":"Cube.024",
			"primitives":[
				{
					"attributes":{
						"POSITION":18,
						"NORMAL":19
					},
					"indices":20,
					"material":0
				}
			]
		},
		{
			"name":"Cylinder",
			"primitives":[
				{
					"attributes":{
						"POSITION":21,
						"NORMAL":22
					},
					"indices":23,
					"material":3
				}
			]
		},
		{
			"name":"Cube.015",
			"primitives":[
				{
					"attributes":{
						"POSITION":24,
						"NORMAL":25
					},
					"indices":26,
					"material":3
				}
			]
		},
		{
			"name":"Cylinder.007",
			"primitives":[
				{
					"attributes":{
						"POSITION":27,
						"NORMAL":28
					},
					"indices":29,
					"material":3
				}
			]
		},
		{
			"name":"Cube.014",
			"primitives":[
				{
					"attributes":{
						"POSITION":30,
						"NORMAL":31
					},
					"indices":32,
					"material":0
				}
			]
		},
		{
			"name":"Cylinder.010",
			"primitives":[
				{
					"attributes":{
						"POSITION":33,
						"NORMAL":34
					},
					"indices":35,
					"material":3
				}
			]
		},
		{
			"name":"Cube.016",
			"primitives":[
				{
					"attributes":{
						"POSITION":36,
						"NORMAL":37
					},
					"indices":38,
					"material":4
				}
			]
		},
		{
			"name":"Cube.017",
			"primitives":[
				{
					"attributes":{
						"POSITION":39,
						"NORMAL":40
					},
					"indices":41,
					"material":4
				}
			]
		}
	],
	"accessors":[
		{
			"bufferView":0,
			"componentType":5126,
			"count":230,
			"max":[
				2.0663344860076904,
				1.5759974718093872,
				3.071180582046509
			],
			"min":[
				-2.0663344860076904,
				-1.0685111284255981,
				-2.5743868350982666
			],
			"type":"VEC3"
		},
		{
			"bufferView":1,
			"componentType":5126,
			"count":230,
			"type":"VEC3"
		},
		{
			"bufferView":2,
			"componentType":5123,
			"count":588,
			"type":"SCALAR"
		},
		{
			"bufferView":3,
			"componentType":5126,
			"count":3330,
			"max":[
				1.7757022380828857,
				1.6642634868621826,
				0.34768426418304443
			],
			"min":[
				-1.7757022380828857,
				-0.26290738582611084,
				-2.679905891418457
			],
			"type":"VEC3"
		},
		{
			"bufferView":4,
			"componentType":5126,
			"count":3330,
			"type":"VEC3"
		},
		{
			"bufferView":5,
			"componentType":5123,
			"count":19968,
			"type":"SCALAR"
		},
		{
			"bufferView":6,
			"componentType":5126,
			"count":15438,
			"max":[
				2.707620143890381,
				1.432900071144104,
				3.2449686527252197
			],
			"min":[
				-2.707620143890381,
				-1.3185096979141235,
				-2.7292985916137695
			],
			"type":"VEC3"
		},
		{
			"bufferView":7,
			"componentType":5126,
			"count":15438,
			"type":"VEC3"
		},
		{
			"bufferView":8,
			"componentType":5123,
			"count":76188,
			"type":"SCALAR"
		},
		{
			"bufferView":9,
			"componentType":5126,
			"count":32064,
			"max":[
				2.6819987297058105,
				1.6806706190109253,
				3.243237018585205
			],
			"min":[
				-2.6819987297058105,
				-1.2993824481964111,
				-2.707324981689453
			],
			"type":"VEC3"
		},
		{
			"bufferView":10,
			"componentType":5126,
			"count":32064,
			"type":"VEC3"
		},
		{
			"bufferView":11,
			"componentType":5123,
			"count":182844,
			"type":"SCALAR"
		},
		{
			"bufferView":12,
			"componentType":5126,
			"count":80,
			"max":[
				-0.02109144628047943,
				0.13525144755840302,
				0.23298881947994232
			],
			"min":[
				-0.4138566851615906,
				-0.5927362442016602,
				-0.06915166229009628
			],
			"type":"VEC3"
		},
		{
			"bufferView":13,
			"componentType":5126,
			"count":80,
			"type":"VEC3"
		},
		{
			"bufferView":14,
			"componentType":5123,
			"count":120,
			"type":"SCALAR"
		},
		{
			"bufferView":15,
			"componentType":5126,
			"count":249,
			"max":[
				0.7734596729278564,
				0.17700068652629852,
				0.2550930678844452
			],
			"min":[
				-0.2704235911369324,
				-0.5972204804420471,
				-0.10000000149011612
			],
			"type":"VEC3"
		},
		{
			"bufferView":16,
			"componentType":5126,
			"count":249,
			"type":"VEC3"
		},
		{
			"bufferView":17,
			"componentType":5123,
			"count":513,
			"type":"SCALAR"
		},
		{
			"bufferView":18,
			"componentType":5126,
			"count":26642,
			"max":[
				0.5461388826370239,
				0.5670104622840881,
				1.2876055240631104
			],
			"min":[
				-0.5241827368736267,
				-0.6318870186805725,
				-1.259961485862732
			],
			"type":"VEC3"
		},
		{
			"bufferView":19,
			"componentType":5126,
			"count":26642,
			"type":"VEC3"
		},
		{
			"bufferView":20,
			"componentType":5123,
			"count":155730,
			"type":"SCALAR"
		},
		{
			"bufferView":21,
			"componentType":5126,
			"count":510,
			"max":[
				0.5502106547355652,
				0.504892110824585,
				0.7674484848976135
			],
			"min":[
				-0.24134418368339539,
				-0.6199913620948792,
				-0.45856115221977234
			],
			"type":"VEC3"
		},
		{
			"bufferView":22,
			"componentType":5126,
			"count":510,
			"type":"VEC3"
		},
		{
			"bufferView":23,
			"componentType":5123,
			"count":1254,
			"type":"SCALAR"
		},
		{
			"bufferView":24,
			"componentType":5126,
			"count":80,
			"max":[
				0.4138566851615906,
				0.13525144755840302,
				0.23298880457878113
			],
			"min":[
				0.02109144628047943,
				-0.5927362442016602,
				-0.06915167719125748
			],
			"type":"VEC3"
		},
		{
			"bufferView":25,
			"componentType":5126,
			"count":80,
			"type":"VEC3"
		},
		{
			"bufferView":26,
			"componentType":5123,
			"count":120,
			"type":"SCALAR"
		},
		{
			"bufferView":27,
			"componentType":5126,
			"count":249,
			"max":[
				0.2704235911369324,
				0.17700070142745972,
				0.2550930380821228
			],
			"min":[
				-0.7734596729278564,
				-0.5972205400466919,
				-0.10000003129243851
			],
			"type":"VEC3"
		},
		{
			"bufferView":28,
			"componentType":5126,
			"count":249,
			"type":"VEC3"
		},
		{
			"bufferView":29,
			"componentType":5123,
			"count":513,
			"type":"SCALAR"
		},
		{
			"bufferView":30,
			"componentType":5126,
			"count":26642,
			"max":[
				0.5241827368736267,
				0.5670103430747986,
				1.2876055240631104
			],
			"min":[
				-0.5461388826370239,
				-0.6318870186805725,
				-1.259961485862732
			],
			"type":"VEC3"
		},
		{
			"bufferView":31,
			"componentType":5126,
			"count":26642,
			"type":"VEC3"
		},
		{
			"bufferView":32,
			"componentType":5123,
			"count":155730,
			"type":"SCALAR"
		},
		{
			"bufferView":33,
			"componentType":5126,
			"count":510,
			"max":[
				0.24134418368339539,
				0.504892110824585,
				0.7674484848976135
			],
			"min":[
				-0.5502106547355652,
				-0.6199913620948792,
				-0.45856115221977234
			],
			"type":"VEC3"
		},
		{
			"bufferView":34,
			"componentType":5126,
			"count":510,
			"type":"VEC3"
		},
		{
			"bufferView":35,
			"componentType":5123,
			"count":1254,
			"type":"SCALAR"
		},
		{
			"bufferView":36,
			"componentType":5126,
			"count":1983,
			"max":[
				0.4999999701976776,
				0.3974319100379944,
				0.35367849469184875
			],
			"min":[
				-0.49999991059303284,
				-1.2064403295516968,
				-1.0014314651489258
			],
			"type":"VEC3"
		},
		{
			"bufferView":37,
			"componentType":5126,
			"count":1983,
			"type":"VEC3"
		},
		{
			"bufferView":38,
			"componentType":5123,
			"count":3024,
			"type":"SCALAR"
		},
		{
			"bufferView":39,
			"componentType":5126,
			"count":1983,
			"max":[
				0.49999991059303284,
				0.3974319100379944,
				0.35367849469184875
			],
			"min":[
				-0.4999999701976776,
				-1.2064403295516968,
				-1.0014314651489258
			],
			"type":"VEC3"
		},
		{
			"bufferView":40,
			"componentType":5126,
			"count":1983,
			"type":"VEC3"
		},
		{
			"bufferView":41,
			"componentType":5123,
			"count":3024,
			"type":"SCALAR"
		}
	],
	"bufferViews":[
		{
			"buffer":0,
			"byteLength":2760,
			"byteOffset":0,
			"target":34962
		},
		{
			"buffer":0,
			"byteLength":2760,
			"byteOffset":2760,
			"target":34962
		},
		{
			"buffer":0,
			"byteLength":1176,
			"byteOffset":5520,
			"target":34963
		},
		{
			"buffer":0,
			"byteLength":39960,
			"byteOffset":6696,
			"target":34962
		},
		{
			"buffer":0,
			"byteLength":39960,
			"byteOffset":46656,
			"target":34962
		},
		{
			"buffer":0,
			"byteLength":39936,
			"byteOffset":86616,
			"target":34963
		},
		{
			"buffer":0,
			"byteLength":185256,
			"byteOffset":126552,
			"target":34962
		},
		{
			"buffer":0,
			"byteLength":185256,
			"byteOffset":311808,
			"target":34962
		},
		{
			"buffer":0,
			"byteLength":152376,
			"byteOffset":497064,
			"target":34963
		},
		{
			"buffer":0,
			"byteLength":384768,
			"byteOffset":649440,
			"target":34962
		},
		{
			"buffer":0,
			"byteLength":384768,
			"byteOffset":1034208,
			"target":34962
		},
		{
			"buffer":0,
			"byteLength":365688,
			"byteOffset":1418976,
			"target":34963
		},
		{
			"buffer":0,
			"byteLength":960,
			"byteOffset":1784664,
			"target":34962
		},
		{
			"buffer":0,
			"byteLength":960,
			"byteOffset":1785624,
			"target":34962
		},
		{
			"buffer":0,
			"byteLength":240,
			"byteOffset":1786584,
			"target":34963
		},
		{
			"buffer":0,
			"byteLength":2988,
			"byteOffset":1786824,
			"target":34962
		},
		{
			"buffer":0,
			"byteLength":2988,
			"byteOffset":1789812,
			"target":34962
		},
		{
			"buffer":0,
			"byteLength":1026,
			"byteOffset":1792800,
			"target":34963
		},
		{
			"buffer":0,
			"byteLength":319704,
			"byteOffset":1793828,
			"target":34962
		},
		{
			"buffer":0,
			"byteLength":319704,
			"byteOffset":2113532,
			"target":34962
		},
		{
			"buffer":0,
			"byteLength":311460,
			"byteOffset":2433236,
			"target":34963
		},
		{
			"buffer":0,
			"byteLength":6120,
			"byteOffset":2744696,
			"target":34962
		},
		{
			"buffer":0,
			"byteLength":6120,
			"byteOffset":2750816,
			"target":34962
		},
		{
			"buffer":0,
			"byteLength":2508,
			"byteOffset":2756936,
			"target":34963
		},
		{
			"buffer":0,
			"byteLength":960,
			"byteOffset":2759444,
			"target":34962
		},
		{
			"buffer":0,
			"byteLength":960,
			"byteOffset":2760404,
			"target":34962
		},
		{
			"buffer":0,
			"byteLength":240,
			"byteOffset":2761364,
			"target":34963
		},
		{
			"buffer":0,
			"byteLength":2988,
			"byteOffset":2761604,
			"target":34962
		},
		{
			"buffer":0,
			"byteLength":2988,
			"byteOffset":2764592,
			"target":34962
		},
		{
			"buffer":0,
			"byteLength":1026,
			"byteOffset":2767580,
			"target":34963
		},
		{
			"buffer":0,
			"byteLength":319704,
			"byteOffset":2768608,
			"target":34962
		},
		{
			"buffer":0,
			"byteLength":319704,
			"byteOffset":3088312,
			"target":34962
		},
		{
			"buffer":0,
			"byteLength":311460,
			"byteOffset":3408016,
			"target":34963
		},
		{
			"buffer":0,
			"byteLength":6120,
			"byteOffset":3719476,
			"target":34962
		},
		{
			"buffer":0,
			"byteLength":6120,
			"byteOffset":3725596,
			"target":34962
		},
		{
			"buffer":0,
			"byteLength":2508,
			"byteOffset":3731716,
			"target":34963
		},
		{
			"buffer":0,
			"byteLength":23796,
			"byteOffset":3734224,
			"target":34962
		},
		{
			"buffer":0,
			"byteLength":23796,
			"byteOffset":3758020,
			"target":34962
		},
		{
			"buffer":0,
			"byteLength":6048,
			"byteOffset":3781816,
			"target":34963
		},
		{
			"buffer":0,
			"byteLength":23796,
			"byteOffset":3787864,
			"target":34962
		},
		{
			"buffer":0,
			"byteLength":23796,
			"byteOffset":3811660,
			"target":34962
		},
		{
			"buffer":0,
			"byteLength":6048,
			"byteOffset":3835456,
			"target":34963
		}
	],
	"buffers":[
		{
			"byteLength":3841504,
			"uri":"Pod.bin"
		}
	]
}
