{
	"asset":{
		"generator":"Khronos glTF Blender I/O v3.5.30",
		"version":"2.0"
	},
	"scene":0,
	"scenes":[
		{
			"name":"Scene",
			"nodes":[
				0
			]
		}
	],
	"nodes":[
		{
			"mesh":0,
			"name":"Cube",
			"translation":[
				0,
				0.906249463558197,
				0
			]
		}
	],
	"materials":[
		{
			"doubleSided":true,
			"name":"body",
			"pbrMetallicRoughness":{
				"baseColorFactor":[
					0.021979179233312607,
					0.021979179233312607,
					0.021979179233312607,
					1
				],
				"metallicFactor":0,
				"roughnessFactor":1
			}
		},
		{
			"doubleSided":true,
			"name":"connector",
			"pbrMetallicRoughness":{
				"baseColorFactor":[
					0.25979745388031006,
					0.15424223244190216,
					0.044959090650081635,
					1
				],
				"metallicFactor":1,
				"roughnessFactor":1
			}
		}
	],
	"meshes":[
		{
			"name":"Cube",
			"primitives":[
				{
					"attributes":{
						"POSITION":0,
						"NORMAL":1
					},
					"indices":2,
					"material":0
				},
				{
					"attributes":{
						"POSITION":3,
						"NORMAL":4
					},
					"indices":5,
					"material":1
				}
			]
		}
	],
	"accessors":[
		{
			"bufferView":0,
			"componentType":5126,
			"count":1421,
			"max":[
				0.5,
				1.093750238418579,
				0.5
			],
			"min":[
				-0.5,
				-0.9062497019767761,
				0
			],
			"type":"VEC3"
		},
		{
			"bufferView":1,
			"componentType":5126,
			"count":1421,
			"type":"VEC3"
		},
		{
			"bufferView":2,
			"componentType":5123,
			"count":4503,
			"type":"SCALAR"
		},
		{
			"bufferView":3,
			"componentType":5126,
			"count":15605,
			"max":[
				0.5390639901161194,
				0.958503007888794,
				0.42725247144699097
			],
			"min":[
				-0.5390639305114746,
				-0.771001935005188,
				0.19774752855300903
			],
			"type":"VEC3"
		},
		{
			"bufferView":4,
			"componentType":5126,
			"count":15605,
			"type":"VEC3"
		},
		{
			"bufferView":5,
			"componentType":5123,
			"count":50379,
			"type":"SCALAR"
		}
	],
	"bufferViews":[
		{
			"buffer":0,
			"byteLength":17052,
			"byteOffset":0,
			"target":34962
		},
		{
			"buffer":0,
			"byteLength":17052,
			"byteOffset":17052,
			"target":34962
		},
		{
			"buffer":0,
			"byteLength":9006,
			"byteOffset":34104,
			"target":34963
		},
		{
			"buffer":0,
			"byteLength":187260,
			"byteOffset":43112,
			"target":34962
		},
		{
			"buffer":0,
			"byteLength":187260,
			"byteOffset":230372,
			"target":34962
		},
		{
			"buffer":0,
			"byteLength":100758,
			"byteOffset":417632,
			"target":34963
		}
	],
	"buffers":[
		{
			"byteLength":518392,
			"uri":"Router.bin"
		}
	]
}
