{
	"asset":{
		"generator":"Khronos glTF Blender I/O v3.6.6",
		"version":"2.0"
	},
	"scene":0,
	"scenes":[
		{
			"name":"Scene",
			"nodes":[
				0,
				1,
				2
			]
		}
	],
	"nodes":[
		{
			"mesh":0,
			"name":"Cube"
		},
		{
			"mesh":1,
			"name":"Torus1",
			"rotation":[
				0,
				0.2729519307613373,
				0,
				0.9620276689529419
			]
		},
		{
			"mesh":2,
			"name":"Torus2",
			"rotation":[
				0.4542236924171448,
				0,
				0.8908876776695251,
				3.8941937674508154e-08
			]
		}
	],
	"materials":[
		{
			"doubleSided":true,
			"name":"body",
			"pbrMetallicRoughness":{
				"baseColorFactor":[
					0.02720930054783821,
					0.02720930054783821,
					0.02720930054783821,
					1
				],
				"metallicFactor":0,
				"roughnessFactor":1
			}
		},
		{
			"doubleSided":true,
			"name":"data-connector",
			"pbrMetallicRoughness":{
				"baseColorFactor":[
					0,
					0.004668767563998699,
					0.6738474369049072,
					1
				],
				"metallicFactor":1,
				"roughnessFactor":1
			}
		},
		{
			"doubleSided":true,
			"name":"lowvoltage",
			"pbrMetallicRoughness":{
				"baseColorFactor":[
					0.7105540037155151,
					0,
					0.0028530480340123177,
					1
				],
				"metallicFactor":1,
				"roughnessFactor":1
			}
		},
		{
			"doubleSided":true,
			"name":"wheel",
			"pbrMetallicRoughness":{
				"baseColorFactor":[
					0.5814629197120667,
					0.5814629197120667,
					0.5814629197120667,
					1
				],
				"metallicFactor":1,
				"roughnessFactor":0
			}
		},
		{
			"doubleSided":true,
			"name":"wheeltrim",
			"pbrMetallicRoughness":{
				"baseColorFactor":[
					0.07657898962497711,
					0.07657898962497711,
					0.07657898962497711,
					1
				],
				"metallicFactor":1,
				"roughnessFactor":0
			}
		}
	],
	"meshes":[
		{
			"name":"Cube.005",
			"primitives":[
				{
					"attributes":{
						"POSITION":0,
						"NORMAL":1
					},
					"indices":2,
					"material":0
				},
				{
					"attributes":{
						"POSITION":3,
						"NORMAL":4
					},
					"indices":5,
					"material":1
				},
				{
					"attributes":{
						"POSITION":6,
						"NORMAL":7
					},
					"indices":8,
					"material":2
				}
			]
		},
		{
			"name":"Torus",
			"primitives":[
				{
					"attributes":{
						"POSITION":9,
						"NORMAL":10
					},
					"indices":11,
					"material":3
				},
				{
					"attributes":{
						"POSITION":12,
						"NORMAL":13
					},
					"indices":14,
					"material":4
				}
			]
		},
		{
			"name":"Torus",
			"primitives":[
				{
					"attributes":{
						"POSITION":15,
						"NORMAL":16
					},
					"indices":11,
					"material":3
				},
				{
					"attributes":{
						"POSITION":17,
						"NORMAL":18
					},
					"indices":14,
					"material":4
				}
			]
		}
	],
	"accessors":[
		{
			"bufferView":0,
			"componentType":5126,
			"count":792,
			"max":[
				0.5,
				0.5,
				0.5
			],
			"min":[
				-0.5,
				-0.5,
				-0.5
			],
			"type":"VEC3"
		},
		{
			"bufferView":1,
			"componentType":5126,
			"count":792,
			"type":"VEC3"
		},
		{
			"bufferView":2,
			"componentType":5123,
			"count":1842,
			"type":"SCALAR"
		},
		{
			"bufferView":3,
			"componentType":5126,
			"count":568,
			"max":[
				-0.03264082968235016,
				0.5206489562988281,
				0.02985917031764984
			],
			"min":[
				-0.09235917031764984,
				0.5,
				-0.02985917031764984
			],
			"type":"VEC3"
		},
		{
			"bufferView":4,
			"componentType":5126,
			"count":568,
			"type":"VEC3"
		},
		{
			"bufferView":5,
			"componentType":5123,
			"count":1566,
			"type":"SCALAR"
		},
		{
			"bufferView":6,
			"componentType":5126,
			"count":288,
			"max":[
				0.0931258499622345,
				0.5203803181648254,
				0.030625849962234497
			],
			"min":[
				0.0318741500377655,
				0.5,
				-0.030625849962234497
			],
			"type":"VEC3"
		},
		{
			"bufferView":7,
			"componentType":5126,
			"count":288,
			"type":"VEC3"
		},
		{
			"bufferView":8,
			"componentType":5123,
			"count":930,
			"type":"SCALAR"
		},
		{
			"bufferView":9,
			"componentType":5126,
			"count":1536,
			"max":[
				0.4638354182243347,
				0,
				0.4638354182243347
			],
			"min":[
				-0.4638354778289795,
				-0.125,
				-0.4638354778289795
			],
			"type":"VEC3"
		},
		{
			"bufferView":10,
			"componentType":5126,
			"count":1536,
			"type":"VEC3"
		},
		{
			"bufferView":11,
			"componentType":5123,
			"count":4680,
			"type":"SCALAR"
		},
		{
			"bufferView":12,
			"componentType":5126,
			"count":192,
			"max":[
				0.38566502928733826,
				0,
				0.38566505908966064
			],
			"min":[
				-0.38566508889198303,
				-0.125,
				-0.3856651782989502
			],
			"type":"VEC3"
		},
		{
			"bufferView":13,
			"componentType":5126,
			"count":192,
			"type":"VEC3"
		},
		{
			"bufferView":14,
			"componentType":5123,
			"count":312,
			"type":"SCALAR"
		},
		{
			"bufferView":15,
			"componentType":5126,
			"count":1536,
			"max":[
				0.4638354182243347,
				0,
				0.4638354182243347
			],
			"min":[
				-0.4638354778289795,
				-0.125,
				-0.4638354778289795
			],
			"type":"VEC3"
		},
		{
			"bufferView":16,
			"componentType":5126,
			"count":1536,
			"type":"VEC3"
		},
		{
			"bufferView":17,
			"componentType":5126,
			"count":192,
			"max":[
				0.38566502928733826,
				0,
				0.38566505908966064
			],
			"min":[
				-0.38566508889198303,
				-0.125,
				-0.3856651782989502
			],
			"type":"VEC3"
		},
		{
			"bufferView":18,
			"componentType":5126,
			"count":192,
			"type":"VEC3"
		}
	],
	"bufferViews":[
		{
			"buffer":0,
			"byteLength":9504,
			"byteOffset":0,
			"target":34962
		},
		{
			"buffer":0,
			"byteLength":9504,
			"byteOffset":9504,
			"target":34962
		},
		{
			"buffer":0,
			"byteLength":3684,
			"byteOffset":19008,
			"target":34963
		},
		{
			"buffer":0,
			"byteLength":6816,
			"byteOffset":22692,
			"target":34962
		},
		{
			"buffer":0,
			"byteLength":6816,
			"byteOffset":29508,
			"target":34962
		},
		{
			"buffer":0,
			"byteLength":3132,
			"byteOffset":36324,
			"target":34963
		},
		{
			"buffer":0,
			"byteLength":3456,
			"byteOffset":39456,
			"target":34962
		},
		{
			"buffer":0,
			"byteLength":3456,
			"byteOffset":42912,
			"target":34962
		},
		{
			"buffer":0,
			"byteLength":1860,
			"byteOffset":46368,
			"target":34963
		},
		{
			"buffer":0,
			"byteLength":18432,
			"byteOffset":48228,
			"target":34962
		},
		{
			"buffer":0,
			"byteLength":18432,
			"byteOffset":66660,
			"target":34962
		},
		{
			"buffer":0,
			"byteLength":9360,
			"byteOffset":85092,
			"target":34963
		},
		{
			"buffer":0,
			"byteLength":2304,
			"byteOffset":94452,
			"target":34962
		},
		{
			"buffer":0,
			"byteLength":2304,
			"byteOffset":96756,
			"target":34962
		},
		{
			"buffer":0,
			"byteLength":624,
			"byteOffset":99060,
			"target":34963
		},
		{
			"buffer":0,
			"byteLength":18432,
			"byteOffset":99684,
			"target":34962
		},
		{
			"buffer":0,
			"byteLength":18432,
			"byteOffset":118116,
			"target":34962
		},
		{
			"buffer":0,
			"byteLength":2304,
			"byteOffset":136548,
			"target":34962
		},
		{
			"buffer":0,
			"byteLength":2304,
			"byteOffset":138852,
			"target":34962
		}
	],
	"buffers":[
		{
			"byteLength":141156,
			"uri":"Gyroscope.bin"
		}
	]
}
