{
	"asset":{
		"generator":"Khronos glTF Blender I/O v3.5.30",
		"version":"2.0"
	},
	"scene":0,
	"scenes":[
		{
			"name":"Scene",
			"nodes":[
				0
			]
		}
	],
	"nodes":[
		{
			"mesh":0,
			"name":"console",
			"translation":[
				0,
				0.49569886922836304,
				0
			]
		}
	],
	"materials":[
		{
			"doubleSided":true,
			"name":"body",
			"pbrMetallicRoughness":{
				"baseColorFactor":[
					0.049549028277397156,
					0.049549028277397156,
					0.049549028277397156,
					1
				],
				"metallicFactor":0,
				"roughnessFactor":1
			}
		},
		{
			"doubleSided":true,
			"name":"power_button",
			"pbrMetallicRoughness":{
				"baseColorFactor":[
					0.07323099672794342,
					0.008254503831267357,
					0.008793776854872704,
					1
				],
				"metallicFactor":0,
				"roughnessFactor":1
			}
		},
		{
			"doubleSided":true,
			"name":"screen",
			"pbrMetallicRoughness":{
				"baseColorFactor":[
					0,
					0,
					0,
					1
				],
				"metallicFactor":0,
				"roughnessFactor":1
			}
		},
		{
			"doubleSided":true,
			"name":"home_button",
			"pbrMetallicRoughness":{
				"baseColorFactor":[
					0.0835312008857727,
					0.0835312008857727,
					0.0835312008857727,
					1
				],
				"metallicFactor":0,
				"roughnessFactor":1
			}
		},
		{
			"doubleSided":true,
			"name":"code_button",
			"pbrMetallicRoughness":{
				"baseColorFactor":[
					0.0318116620182991,
					0.03877115622162819,
					0.10653471946716309,
					1
				],
				"metallicFactor":0,
				"roughnessFactor":1
			}
		}
	],
	"meshes":[
		{
			"name":"Cube",
			"primitives":[
				{
					"attributes":{
						"POSITION":0,
						"TEXCOORD_0":1
					},
					"indices":2,
					"material":0
				},
				{
					"attributes":{
						"POSITION":3,
						"TEXCOORD_0":4
					},
					"indices":5,
					"material":1
				},
				{
					"attributes":{
						"POSITION":6,
						"TEXCOORD_0":7
					},
					"indices":8,
					"material":2
				},
				{
					"attributes":{
						"POSITION":9,
						"TEXCOORD_0":10
					},
					"indices":11,
					"material":3
				},
				{
					"attributes":{
						"POSITION":12,
						"TEXCOORD_0":13
					},
					"indices":14,
					"material":4
				}
			]
		}
	],
	"accessors":[
		{
			"bufferView":0,
			"componentType":5126,
			"count":83,
			"max":[
				0.5,
				0.4000000059604645,
				0.125
			],
			"min":[
				-0.5,
				-0.6792532801628113,
				-0.48363229632377625
			],
			"type":"VEC3"
		},
		{
			"bufferView":1,
			"componentType":5126,
			"count":83,
			"type":"VEC2"
		},
		{
			"bufferView":2,
			"componentType":5123,
			"count":276,
			"type":"SCALAR"
		},
		{
			"bufferView":3,
			"componentType":5126,
			"count":914,
			"max":[
				-0.24561116099357605,
				-0.4862741231918335,
				-0.29746341705322266
			],
			"min":[
				-0.45774632692337036,
				-0.5247659683227539,
				-0.41325151920318604
			],
			"type":"VEC3"
		},
		{
			"bufferView":4,
			"componentType":5126,
			"count":914,
			"type":"VEC2"
		},
		{
			"bufferView":5,
			"componentType":5123,
			"count":3294,
			"type":"SCALAR"
		},
		{
			"bufferView":6,
			"componentType":5126,
			"count":4,
			"max":[
				0.4171692132949829,
				0.3337353765964508,
				-0.10508676618337631
			],
			"min":[
				-0.4171692132949829,
				-0.3337353765964508,
				-0.10508676618337631
			],
			"type":"VEC3"
		},
		{
			"bufferView":7,
			"componentType":5126,
			"count":4,
			"type":"VEC2"
		},
		{
			"bufferView":8,
			"componentType":5123,
			"count":6,
			"type":"SCALAR"
		},
		{
			"bufferView":9,
			"componentType":5126,
			"count":461,
			"max":[
				0.09730499237775803,
				-0.4862741231918335,
				-0.29746341705322266
			],
			"min":[
				-0.10306137800216675,
				-0.5247659683227539,
				-0.41325151920318604
			],
			"type":"VEC3"
		},
		{
			"bufferView":10,
			"componentType":5126,
			"count":461,
			"type":"VEC2"
		},
		{
			"bufferView":11,
			"componentType":5123,
			"count":1680,
			"type":"SCALAR"
		},
		{
			"bufferView":12,
			"componentType":5126,
			"count":876,
			"max":[
				0.4458886981010437,
				-0.4862741231918335,
				-0.29746341705322266
			],
			"min":[
				0.23756861686706543,
				-0.5247659683227539,
				-0.41325151920318604
			],
			"type":"VEC3"
		},
		{
			"bufferView":13,
			"componentType":5126,
			"count":876,
			"type":"VEC2"
		},
		{
			"bufferView":14,
			"componentType":5123,
			"count":3174,
			"type":"SCALAR"
		}
	],
	"bufferViews":[
		{
			"buffer":0,
			"byteLength":996,
			"byteOffset":0,
			"target":34962
		},
		{
			"buffer":0,
			"byteLength":664,
			"byteOffset":996,
			"target":34962
		},
		{
			"buffer":0,
			"byteLength":552,
			"byteOffset":1660,
			"target":34963
		},
		{
			"buffer":0,
			"byteLength":10968,
			"byteOffset":2212,
			"target":34962
		},
		{
			"buffer":0,
			"byteLength":7312,
			"byteOffset":13180,
			"target":34962
		},
		{
			"buffer":0,
			"byteLength":6588,
			"byteOffset":20492,
			"target":34963
		},
		{
			"buffer":0,
			"byteLength":48,
			"byteOffset":27080,
			"target":34962
		},
		{
			"buffer":0,
			"byteLength":32,
			"byteOffset":27128,
			"target":34962
		},
		{
			"buffer":0,
			"byteLength":12,
			"byteOffset":27160,
			"target":34963
		},
		{
			"buffer":0,
			"byteLength":5532,
			"byteOffset":27172,
			"target":34962
		},
		{
			"buffer":0,
			"byteLength":3688,
			"byteOffset":32704,
			"target":34962
		},
		{
			"buffer":0,
			"byteLength":3360,
			"byteOffset":36392,
			"target":34963
		},
		{
			"buffer":0,
			"byteLength":10512,
			"byteOffset":39752,
			"target":34962
		},
		{
			"buffer":0,
			"byteLength":7008,
			"byteOffset":50264,
			"target":34962
		},
		{
			"buffer":0,
			"byteLength":6348,
			"byteOffset":57272,
			"target":34963
		}
	],
	"buffers":[
		{
			"byteLength":63620,
			"uri":"Computer.bin"
		}
	]
}
