{
	"asset":{
		"generator":"Khronos glTF Blender I/O v3.6.6",
		"version":"2.0"
	},
	"scene":0,
	"scenes":[
		{
			"name":"Scene",
			"nodes":[
				0,
				1,
				2
			]
		}
	],
	"nodes":[
		{
			"mesh":0,
			"name":"Box",
			"translation":[
				0,
				0,
				0.11550161242485046
			]
		},
		{
			"mesh":1,
			"name":"Torus",
			"translation":[
				0,
				0,
				-0.3288073241710663
			]
		},
		{
			"mesh":2,
			"name":"suspension-cylinder",
			"translation":[
				0,
				0,
				0.22248366475105286
			]
		}
	],
	"materials":[
		{
			"doubleSided":true,
			"name":"Material.001",
			"pbrMetallicRoughness":{
				"baseColorFactor":[
					0.25294268131256104,
					0.25294268131256104,
					0.25294268131256104,
					1
				],
				"metallicFactor":0,
				"roughnessFactor":1
			}
		},
		{
			"doubleSided":true,
			"name":"data-connector",
			"pbrMetallicRoughness":{
				"baseColorFactor":[
					0,
					0.011267319321632385,
					0.46720072627067566,
					1
				],
				"metallicFactor":1,
				"roughnessFactor":1
			}
		},
		{
			"doubleSided":true,
			"name":"power-connector",
			"pbrMetallicRoughness":{
				"baseColorFactor":[
					0.5382239818572998,
					0.0030081055592745543,
					0,
					1
				],
				"metallicFactor":1,
				"roughnessFactor":1
			}
		},
		{
			"doubleSided":true,
			"name":"tire",
			"pbrMetallicRoughness":{
				"baseColorFactor":[
					0.01341040339320898,
					0.01341040339320898,
					0.01341040339320898,
					1
				],
				"metallicFactor":0,
				"roughnessFactor":1
			}
		}
	],
	"meshes":[
		{
			"name":"Torus.001",
			"primitives":[
				{
					"attributes":{
						"POSITION":0,
						"NORMAL":1
					},
					"indices":2,
					"material":0
				},
				{
					"attributes":{
						"POSITION":3,
						"NORMAL":4
					},
					"indices":5,
					"material":1
				},
				{
					"attributes":{
						"POSITION":6,
						"NORMAL":7
					},
					"indices":8,
					"material":2
				}
			]
		},
		{
			"name":"Torus",
			"primitives":[
				{
					"attributes":{
						"POSITION":9,
						"NORMAL":10
					},
					"indices":11,
					"material":0
				},
				{
					"attributes":{
						"POSITION":12,
						"NORMAL":13
					},
					"indices":14,
					"material":3
				}
			]
		},
		{
			"name":"Torus.002",
			"primitives":[
				{
					"attributes":{
						"POSITION":15,
						"NORMAL":16
					},
					"indices":17,
					"material":0
				}
			]
		}
	],
	"accessors":[
		{
			"bufferView":0,
			"componentType":5126,
			"count":436,
			"max":[
				0.5370633602142334,
				0.6652138829231262,
				0.04801957309246063
			],
			"min":[
				-0.537063479423523,
				-0.17947307229042053,
				-0.4903867542743683
			],
			"type":"VEC3"
		},
		{
			"bufferView":1,
			"componentType":5126,
			"count":436,
			"type":"VEC3"
		},
		{
			"bufferView":2,
			"componentType":5123,
			"count":1227,
			"type":"SCALAR"
		},
		{
			"bufferView":3,
			"componentType":5126,
			"count":568,
			"max":[
				0.15485917031764984,
				0.20012210309505463,
				-0.029329396784305573
			],
			"min":[
				0.09514082968235016,
				0.1794731616973877,
				-0.08904773741960526
			],
			"type":"VEC3"
		},
		{
			"bufferView":4,
			"componentType":5126,
			"count":568,
			"type":"VEC3"
		},
		{
			"bufferView":5,
			"componentType":5123,
			"count":1566,
			"type":"SCALAR"
		},
		{
			"bufferView":6,
			"componentType":5126,
			"count":294,
			"max":[
				-0.0943741500377655,
				0.19985350966453552,
				-0.028562717139720917
			],
			"min":[
				-0.1556258499622345,
				0.17947308719158173,
				-0.08981441706418991
			],
			"type":"VEC3"
		},
		{
			"bufferView":7,
			"componentType":5126,
			"count":294,
			"type":"VEC3"
		},
		{
			"bufferView":8,
			"componentType":5123,
			"count":948,
			"type":"SCALAR"
		},
		{
			"bufferView":9,
			"componentType":5126,
			"count":385,
			"max":[
				0.2719253897666931,
				0.27192533016204834,
				0.07594066113233566
			],
			"min":[
				-0.27192533016204834,
				-0.2719254195690155,
				-0.1720672994852066
			],
			"type":"VEC3"
		},
		{
			"bufferView":10,
			"componentType":5126,
			"count":385,
			"type":"VEC3"
		},
		{
			"bufferView":11,
			"componentType":5123,
			"count":1242,
			"type":"SCALAR"
		},
		{
			"bufferView":12,
			"componentType":5126,
			"count":2128,
			"max":[
				0.4991202652454376,
				0.4991202652454376,
				0.17722557485103607
			],
			"min":[
				-0.4991202652454376,
				-0.49912029504776,
				-0.18202438950538635
			],
			"type":"VEC3"
		},
		{
			"bufferView":13,
			"componentType":5126,
			"count":2128,
			"type":"VEC3"
		},
		{
			"bufferView":14,
			"componentType":5123,
			"count":4896,
			"type":"SCALAR"
		},
		{
			"bufferView":15,
			"componentType":5126,
			"count":76,
			"max":[
				0.058495696634054184,
				0.18083569407463074,
				-0.43360161781311035
			],
			"min":[
				-0.05849567428231239,
				-0.18083588778972626,
				-0.5310110449790955
			],
			"type":"VEC3"
		},
		{
			"bufferView":16,
			"componentType":5126,
			"count":76,
			"type":"VEC3"
		},
		{
			"bufferView":17,
			"componentType":5123,
			"count":168,
			"type":"SCALAR"
		}
	],
	"bufferViews":[
		{
			"buffer":0,
			"byteLength":5232,
			"byteOffset":0,
			"target":34962
		},
		{
			"buffer":0,
			"byteLength":5232,
			"byteOffset":5232,
			"target":34962
		},
		{
			"buffer":0,
			"byteLength":2454,
			"byteOffset":10464,
			"target":34963
		},
		{
			"buffer":0,
			"byteLength":6816,
			"byteOffset":12920,
			"target":34962
		},
		{
			"buffer":0,
			"byteLength":6816,
			"byteOffset":19736,
			"target":34962
		},
		{
			"buffer":0,
			"byteLength":3132,
			"byteOffset":26552,
			"target":34963
		},
		{
			"buffer":0,
			"byteLength":3528,
			"byteOffset":29684,
			"target":34962
		},
		{
			"buffer":0,
			"byteLength":3528,
			"byteOffset":33212,
			"target":34962
		},
		{
			"buffer":0,
			"byteLength":1896,
			"byteOffset":36740,
			"target":34963
		},
		{
			"buffer":0,
			"byteLength":4620,
			"byteOffset":38636,
			"target":34962
		},
		{
			"buffer":0,
			"byteLength":4620,
			"byteOffset":43256,
			"target":34962
		},
		{
			"buffer":0,
			"byteLength":2484,
			"byteOffset":47876,
			"target":34963
		},
		{
			"buffer":0,
			"byteLength":25536,
			"byteOffset":50360,
			"target":34962
		},
		{
			"buffer":0,
			"byteLength":25536,
			"byteOffset":75896,
			"target":34962
		},
		{
			"buffer":0,
			"byteLength":9792,
			"byteOffset":101432,
			"target":34963
		},
		{
			"buffer":0,
			"byteLength":912,
			"byteOffset":111224,
			"target":34962
		},
		{
			"buffer":0,
			"byteLength":912,
			"byteOffset":112136,
			"target":34962
		},
		{
			"buffer":0,
			"byteLength":336,
			"byteOffset":113048,
			"target":34963
		}
	],
	"buffers":[
		{
			"byteLength":113384,
			"uri":"Wheel.bin"
		}
	]
}
