{
	"asset":{
		"generator":"Khronos glTF Blender I/O v3.6.6",
		"version":"2.0"
	},
	"scene":0,
	"scenes":[
		{
			"name":"Scene",
			"nodes":[
				0,
				1
			]
		}
	],
	"nodes":[
		{
			"mesh":0,
			"name":"console",
			"translation":[
				0,
				0.49569886922836304,
				0
			]
		},
		{
			"mesh":1,
			"name":"hdd",
			"translation":[
				0,
				0.4856988787651062,
				0.02416868880391121
			]
		}
	],
	"materials":[
		{
			"doubleSided":true,
			"name":"body",
			"pbrMetallicRoughness":{
				"baseColorFactor":[
					0.049549028277397156,
					0.049549028277397156,
					0.049549028277397156,
					1
				],
				"metallicFactor":0,
				"roughnessFactor":1
			}
		},
		{
			"doubleSided":true,
			"name":"power_button",
			"pbrMetallicRoughness":{
				"baseColorFactor":[
					0,
					0,
					0,
					1
				],
				"metallicFactor":0,
				"roughnessFactor":1
			}
		},
		{
			"doubleSided":true,
			"name":"screen",
			"pbrMetallicRoughness":{
				"baseColorFactor":[
					0,
					0,
					0,
					1
				],
				"metallicFactor":0,
				"roughnessFactor":1
			}
		},
		{
			"doubleSided":true,
			"name":"reboot_button",
			"pbrMetallicRoughness":{
				"baseColorFactor":[
					0.1328628659248352,
					0.09991736710071564,
					0.0006564378854818642,
					1
				],
				"metallicFactor":0,
				"roughnessFactor":1
			}
		},
		{
			"doubleSided":true,
			"name":"code_button",
			"pbrMetallicRoughness":{
				"baseColorFactor":[
					0.0318116620182991,
					0.03877115622162819,
					0.10653471946716309,
					1
				],
				"metallicFactor":0,
				"roughnessFactor":1
			}
		},
		{
			"doubleSided":true,
			"name":"lowvoltage-connector",
			"pbrMetallicRoughness":{
				"baseColorFactor":[
					0.3505544364452362,
					0.011006497777998447,
					0,
					1
				],
				"metallicFactor":1,
				"roughnessFactor":1
			}
		},
		{
			"doubleSided":true,
			"name":"hdd_bay",
			"pbrMetallicRoughness":{
				"baseColorFactor":[
					0.018274808302521706,
					0.031062906607985497,
					0.021525153890252113,
					1
				],
				"metallicFactor":0,
				"roughnessFactor":1
			}
		},
		{
			"doubleSided":true,
			"name":"data-connector",
			"pbrMetallicRoughness":{
				"baseColorFactor":[
					0,
					0.030145371332764626,
					0.47698864340782166,
					1
				],
				"metallicFactor":1,
				"roughnessFactor":1
			}
		},
		{
			"doubleSided":true,
			"name":"hdd",
			"pbrMetallicRoughness":{
				"baseColorFactor":[
					0.035217974334955215,
					0.035217974334955215,
					0.035217974334955215,
					1
				],
				"metallicFactor":1,
				"roughnessFactor":0
			}
		}
	],
	"meshes":[
		{
			"name":"Cube",
			"primitives":[
				{
					"attributes":{
						"POSITION":0,
						"TEXCOORD_0":1,
						"NORMAL":2
					},
					"indices":3,
					"material":0
				},
				{
					"attributes":{
						"POSITION":4,
						"TEXCOORD_0":5,
						"NORMAL":6
					},
					"indices":7,
					"material":1
				},
				{
					"attributes":{
						"POSITION":8,
						"TEXCOORD_0":9,
						"NORMAL":10
					},
					"indices":11,
					"material":2
				},
				{
					"attributes":{
						"POSITION":12,
						"TEXCOORD_0":13,
						"NORMAL":14
					},
					"indices":15,
					"material":3
				},
				{
					"attributes":{
						"POSITION":16,
						"TEXCOORD_0":17,
						"NORMAL":18
					},
					"indices":19,
					"material":4
				},
				{
					"attributes":{
						"POSITION":20,
						"TEXCOORD_0":21,
						"NORMAL":22
					},
					"indices":23,
					"material":5
				},
				{
					"attributes":{
						"POSITION":24,
						"TEXCOORD_0":25,
						"NORMAL":26
					},
					"indices":27,
					"material":6
				},
				{
					"attributes":{
						"POSITION":28,
						"TEXCOORD_0":29,
						"NORMAL":30
					},
					"indices":31,
					"material":7
				}
			]
		},
		{
			"name":"Cube.001",
			"primitives":[
				{
					"attributes":{
						"POSITION":32,
						"TEXCOORD_0":33,
						"NORMAL":34
					},
					"indices":35,
					"material":8
				}
			]
		}
	],
	"accessors":[
		{
			"bufferView":0,
			"componentType":5126,
			"count":556,
			"max":[
				0.5,
				0.4000000059604645,
				0.06827773153781891
			],
			"min":[
				-0.5,
				-0.6707034111022949,
				-0.43076664209365845
			],
			"type":"VEC3"
		},
		{
			"bufferView":1,
			"componentType":5126,
			"count":556,
			"type":"VEC2"
		},
		{
			"bufferView":2,
			"componentType":5126,
			"count":556,
			"type":"VEC3"
		},
		{
			"bufferView":3,
			"componentType":5123,
			"count":1548,
			"type":"SCALAR"
		},
		{
			"bufferView":4,
			"componentType":5126,
			"count":335,
			"max":[
				-0.21981999278068542,
				-0.5801371335983276,
				-0.42491453886032104
			],
			"min":[
				-0.2828761637210846,
				-0.6431933045387268,
				-0.45644262433052063
			],
			"type":"VEC3"
		},
		{
			"bufferView":5,
			"componentType":5126,
			"count":335,
			"type":"VEC2"
		},
		{
			"bufferView":6,
			"componentType":5126,
			"count":335,
			"type":"VEC3"
		},
		{
			"bufferView":7,
			"componentType":5123,
			"count":1056,
			"type":"SCALAR"
		},
		{
			"bufferView":8,
			"componentType":5126,
			"count":16,
			"max":[
				0.48487964272499084,
				0.38790372014045715,
				-0.0642896518111229
			],
			"min":[
				-0.48487964272499084,
				-0.38790372014045715,
				-0.06428965926170349
			],
			"type":"VEC3"
		},
		{
			"bufferView":9,
			"componentType":5126,
			"count":16,
			"type":"VEC2"
		},
		{
			"bufferView":10,
			"componentType":5126,
			"count":16,
			"type":"VEC3"
		},
		{
			"bufferView":11,
			"componentType":5123,
			"count":42,
			"type":"SCALAR"
		},
		{
			"bufferView":12,
			"componentType":5126,
			"count":2577,
			"max":[
				-0.1608605682849884,
				-0.5403738021850586,
				-0.27311840653419495
			],
			"min":[
				-0.42081600427627563,
				-0.5521321892738342,
				-0.3889065086841583
			],
			"type":"VEC3"
		},
		{
			"bufferView":13,
			"componentType":5126,
			"count":2577,
			"type":"VEC2"
		},
		{
			"bufferView":14,
			"componentType":5126,
			"count":2577,
			"type":"VEC3"
		},
		{
			"bufferView":15,
			"componentType":5123,
			"count":5124,
			"type":"SCALAR"
		},
		{
			"bufferView":16,
			"componentType":5126,
			"count":1637,
			"max":[
				0.42979905009269714,
				-0.5403738021850586,
				-0.27311840653419495
			],
			"min":[
				0.15952450037002563,
				-0.5521321892738342,
				-0.3889065086841583
			],
			"type":"VEC3"
		},
		{
			"bufferView":17,
			"componentType":5126,
			"count":1637,
			"type":"VEC2"
		},
		{
			"bufferView":18,
			"componentType":5126,
			"count":1637,
			"type":"VEC3"
		},
		{
			"bufferView":19,
			"componentType":5123,
			"count":3282,
			"type":"SCALAR"
		},
		{
			"bufferView":20,
			"componentType":5126,
			"count":312,
			"max":[
				-0.5000275373458862,
				-0.47203686833381653,
				0.030625849962234497
			],
			"min":[
				-0.5204079151153564,
				-0.5332885980606079,
				-0.030625849962234497
			],
			"type":"VEC3"
		},
		{
			"bufferView":21,
			"componentType":5126,
			"count":312,
			"type":"VEC2"
		},
		{
			"bufferView":22,
			"componentType":5126,
			"count":312,
			"type":"VEC3"
		},
		{
			"bufferView":23,
			"componentType":5123,
			"count":996,
			"type":"SCALAR"
		},
		{
			"bufferView":24,
			"componentType":5126,
			"count":64,
			"max":[
				0.1854923963546753,
				-0.5683212876319885,
				-0.23502600193023682
			],
			"min":[
				-0.1854923963546753,
				-0.6556979417800903,
				-0.43076664209365845
			],
			"type":"VEC3"
		},
		{
			"bufferView":25,
			"componentType":5126,
			"count":64,
			"type":"VEC2"
		},
		{
			"bufferView":26,
			"componentType":5126,
			"count":64,
			"type":"VEC3"
		},
		{
			"bufferView":27,
			"componentType":5123,
			"count":150,
			"type":"SCALAR"
		},
		{
			"bufferView":28,
			"componentType":5126,
			"count":6816,
			"max":[
				0.5206488966941833,
				0.3423025608062744,
				0.02985917031764984
			],
			"min":[
				-0.5206489562988281,
				-0.34241586923599243,
				-0.02985917031764984
			],
			"type":"VEC3"
		},
		{
			"bufferView":29,
			"componentType":5126,
			"count":6816,
			"type":"VEC2"
		},
		{
			"bufferView":30,
			"componentType":5126,
			"count":6816,
			"type":"VEC3"
		},
		{
			"bufferView":31,
			"componentType":5123,
			"count":18792,
			"type":"SCALAR"
		},
		{
			"bufferView":32,
			"componentType":5126,
			"count":154,
			"max":[
				0.18171092867851257,
				-0.5624328851699829,
				-0.2467244267463684
			],
			"min":[
				-0.18171092867851257,
				-0.641586422920227,
				-0.4858471155166626
			],
			"type":"VEC3"
		},
		{
			"bufferView":33,
			"componentType":5126,
			"count":154,
			"type":"VEC2"
		},
		{
			"bufferView":34,
			"componentType":5126,
			"count":154,
			"type":"VEC3"
		},
		{
			"bufferView":35,
			"componentType":5123,
			"count":468,
			"type":"SCALAR"
		}
	],
	"bufferViews":[
		{
			"buffer":0,
			"byteLength":6672,
			"byteOffset":0,
			"target":34962
		},
		{
			"buffer":0,
			"byteLength":4448,
			"byteOffset":6672,
			"target":34962
		},
		{
			"buffer":0,
			"byteLength":6672,
			"byteOffset":11120,
			"target":34962
		},
		{
			"buffer":0,
			"byteLength":3096,
			"byteOffset":17792,
			"target":34963
		},
		{
			"buffer":0,
			"byteLength":4020,
			"byteOffset":20888,
			"target":34962
		},
		{
			"buffer":0,
			"byteLength":2680,
			"byteOffset":24908,
			"target":34962
		},
		{
			"buffer":0,
			"byteLength":4020,
			"byteOffset":27588,
			"target":34962
		},
		{
			"buffer":0,
			"byteLength":2112,
			"byteOffset":31608,
			"target":34963
		},
		{
			"buffer":0,
			"byteLength":192,
			"byteOffset":33720,
			"target":34962
		},
		{
			"buffer":0,
			"byteLength":128,
			"byteOffset":33912,
			"target":34962
		},
		{
			"buffer":0,
			"byteLength":192,
			"byteOffset":34040,
			"target":34962
		},
		{
			"buffer":0,
			"byteLength":84,
			"byteOffset":34232,
			"target":34963
		},
		{
			"buffer":0,
			"byteLength":30924,
			"byteOffset":34316,
			"target":34962
		},
		{
			"buffer":0,
			"byteLength":20616,
			"byteOffset":65240,
			"target":34962
		},
		{
			"buffer":0,
			"byteLength":30924,
			"byteOffset":85856,
			"target":34962
		},
		{
			"buffer":0,
			"byteLength":10248,
			"byteOffset":116780,
			"target":34963
		},
		{
			"buffer":0,
			"byteLength":19644,
			"byteOffset":127028,
			"target":34962
		},
		{
			"buffer":0,
			"byteLength":13096,
			"byteOffset":146672,
			"target":34962
		},
		{
			"buffer":0,
			"byteLength":19644,
			"byteOffset":159768,
			"target":34962
		},
		{
			"buffer":0,
			"byteLength":6564,
			"byteOffset":179412,
			"target":34963
		},
		{
			"buffer":0,
			"byteLength":3744,
			"byteOffset":185976,
			"target":34962
		},
		{
			"buffer":0,
			"byteLength":2496,
			"byteOffset":189720,
			"target":34962
		},
		{
			"buffer":0,
			"byteLength":3744,
			"byteOffset":192216,
			"target":34962
		},
		{
			"buffer":0,
			"byteLength":1992,
			"byteOffset":195960,
			"target":34963
		},
		{
			"buffer":0,
			"byteLength":768,
			"byteOffset":197952,
			"target":34962
		},
		{
			"buffer":0,
			"byteLength":512,
			"byteOffset":198720,
			"target":34962
		},
		{
			"buffer":0,
			"byteLength":768,
			"byteOffset":199232,
			"target":34962
		},
		{
			"buffer":0,
			"byteLength":300,
			"byteOffset":200000,
			"target":34963
		},
		{
			"buffer":0,
			"byteLength":81792,
			"byteOffset":200300,
			"target":34962
		},
		{
			"buffer":0,
			"byteLength":54528,
			"byteOffset":282092,
			"target":34962
		},
		{
			"buffer":0,
			"byteLength":81792,
			"byteOffset":336620,
			"target":34962
		},
		{
			"buffer":0,
			"byteLength":37584,
			"byteOffset":418412,
			"target":34963
		},
		{
			"buffer":0,
			"byteLength":1848,
			"byteOffset":455996,
			"target":34962
		},
		{
			"buffer":0,
			"byteLength":1232,
			"byteOffset":457844,
			"target":34962
		},
		{
			"buffer":0,
			"byteLength":1848,
			"byteOffset":459076,
			"target":34962
		},
		{
			"buffer":0,
			"byteLength":936,
			"byteOffset":460924,
			"target":34963
		}
	],
	"buffers":[
		{
			"byteLength":461860,
			"uri":"Computer.bin"
		}
	]
}
