{
	"asset":{
		"generator":"Khronos glTF Blender I/O v3.6.6",
		"version":"2.0"
	},
	"scene":0,
	"scenes":[
		{
			"name":"Scene",
			"nodes":[
				0,
				1
			]
		}
	],
	"nodes":[
		{
			"mesh":0,
			"name":"Cube"
		},
		{
			"mesh":1,
			"name":"Cylinder",
			"rotation":[
				-0.7071068286895752,
				0,
				0,
				0.7071068286895752
			]
		}
	],
	"materials":[
		{
			"doubleSided":true,
			"name":"body",
			"pbrMetallicRoughness":{
				"baseColorFactor":[
					0.800000011920929,
					0.800000011920929,
					0.800000011920929,
					1
				],
				"metallicFactor":0,
				"roughnessFactor":1
			}
		},
		{
			"doubleSided":true,
			"name":"data",
			"pbrMetallicRoughness":{
				"baseColorFactor":[
					0,
					0.02228909358382225,
					0.8000000715255737,
					1
				],
				"metallicFactor":1,
				"roughnessFactor":1
			}
		},
		{
			"doubleSided":true,
			"name":"handle",
			"pbrMetallicRoughness":{
				"baseColorFactor":[
					0.025393981486558914,
					0.025393981486558914,
					0.025393981486558914,
					1
				],
				"metallicFactor":0,
				"roughnessFactor":1
			}
		}
	],
	"meshes":[
		{
			"name":"Cube",
			"primitives":[
				{
					"attributes":{
						"POSITION":0,
						"NORMAL":1
					},
					"indices":2,
					"material":0
				},
				{
					"attributes":{
						"POSITION":3,
						"NORMAL":4
					},
					"indices":5,
					"material":1
				}
			]
		},
		{
			"name":"Cylinder",
			"primitives":[
				{
					"attributes":{
						"POSITION":6,
						"NORMAL":7
					},
					"indices":8,
					"material":2
				}
			]
		}
	],
	"accessors":[
		{
			"bufferView":0,
			"componentType":5126,
			"count":134,
			"max":[
				0.125,
				0.25,
				0.125
			],
			"min":[
				-0.125,
				-0.25,
				-0.1114891767501831
			],
			"type":"VEC3"
		},
		{
			"bufferView":1,
			"componentType":5126,
			"count":134,
			"type":"VEC3"
		},
		{
			"bufferView":2,
			"componentType":5123,
			"count":288,
			"type":"SCALAR"
		},
		{
			"bufferView":3,
			"componentType":5126,
			"count":372,
			"max":[
				0.01492958515882492,
				0.25997838377952576,
				0.026880744844675064
			],
			"min":[
				-0.01492958515882492,
				0.25,
				-0.002978426404297352
			],
			"type":"VEC3"
		},
		{
			"bufferView":4,
			"componentType":5126,
			"count":372,
			"type":"VEC3"
		},
		{
			"bufferView":5,
			"componentType":5123,
			"count":1014,
			"type":"SCALAR"
		},
		{
			"bufferView":6,
			"componentType":5126,
			"count":704,
			"max":[
				0.08508323132991791,
				0.28513672947883606,
				0.03163670003414154
			],
			"min":[
				-0.08508323132991791,
				-0.0843726396560669,
				-0.03163667768239975
			],
			"type":"VEC3"
		},
		{
			"bufferView":7,
			"componentType":5126,
			"count":704,
			"type":"VEC3"
		},
		{
			"bufferView":8,
			"componentType":5123,
			"count":2280,
			"type":"SCALAR"
		}
	],
	"bufferViews":[
		{
			"buffer":0,
			"byteLength":1608,
			"byteOffset":0,
			"target":34962
		},
		{
			"buffer":0,
			"byteLength":1608,
			"byteOffset":1608,
			"target":34962
		},
		{
			"buffer":0,
			"byteLength":576,
			"byteOffset":3216,
			"target":34963
		},
		{
			"buffer":0,
			"byteLength":4464,
			"byteOffset":3792,
			"target":34962
		},
		{
			"buffer":0,
			"byteLength":4464,
			"byteOffset":8256,
			"target":34962
		},
		{
			"buffer":0,
			"byteLength":2028,
			"byteOffset":12720,
			"target":34963
		},
		{
			"buffer":0,
			"byteLength":8448,
			"byteOffset":14748,
			"target":34962
		},
		{
			"buffer":0,
			"byteLength":8448,
			"byteOffset":23196,
			"target":34962
		},
		{
			"buffer":0,
			"byteLength":4560,
			"byteOffset":31644,
			"target":34963
		}
	],
	"buffers":[
		{
			"byteLength":36204,
			"uri":"Throttle.bin"
		}
	]
}
