{
	"asset":{
		"generator":"Khronos glTF Blender I/O v3.5.30",
		"version":"2.0"
	},
	"scene":0,
	"scenes":[
		{
			"name":"Scene",
			"nodes":[
				0
			]
		}
	],
	"nodes":[
		{
			"mesh":0,
			"name":"box"
		}
	],
	"materials":[
		{
			"doubleSided":true,
			"name":"Material.001",
			"pbrMetallicRoughness":{
				"baseColorFactor":[
					0.4200241267681122,
					0.4200241267681122,
					0.4200241267681122,
					1
				],
				"metallicFactor":1,
				"roughnessFactor":1
			}
		},
		{
			"doubleSided":true,
			"name":"lowvoltage-connector",
			"pbrMetallicRoughness":{
				"baseColorFactor":[
					0.49692288041114807,
					0,
					0.0013217374216765165,
					1
				],
				"metallicFactor":1,
				"roughnessFactor":1
			}
		},
		{
			"doubleSided":true,
			"name":"data-connector",
			"pbrMetallicRoughness":{
				"baseColorFactor":[
					0,
					0.006704149302095175,
					0.5814630389213562,
					1
				],
				"metallicFactor":1,
				"roughnessFactor":1
			}
		}
	],
	"meshes":[
		{
			"name":"Cube.001",
			"primitives":[
				{
					"attributes":{
						"POSITION":0,
						"NORMAL":1
					},
					"indices":2,
					"material":0
				},
				{
					"attributes":{
						"POSITION":3,
						"NORMAL":4
					},
					"indices":5,
					"material":1
				},
				{
					"attributes":{
						"POSITION":6,
						"NORMAL":7
					},
					"indices":8,
					"material":2
				}
			]
		}
	],
	"accessors":[
		{
			"bufferView":0,
			"componentType":5126,
			"count":124,
			"max":[
				0.125,
				0.125,
				0.0625
			],
			"min":[
				-0.125,
				-0.125,
				-0.0625
			],
			"type":"VEC3"
		},
		{
			"bufferView":1,
			"componentType":5126,
			"count":124,
			"type":"VEC3"
		},
		{
			"bufferView":2,
			"componentType":5123,
			"count":306,
			"type":"SCALAR"
		},
		{
			"bufferView":3,
			"componentType":5126,
			"count":576,
			"max":[
				0.14538034796714783,
				0.0931258499622345,
				0.030625849962234497
			],
			"min":[
				-0.14538034796714783,
				-0.030625849962234497,
				-0.030625849962234497
			],
			"type":"VEC3"
		},
		{
			"bufferView":4,
			"componentType":5126,
			"count":576,
			"type":"VEC3"
		},
		{
			"bufferView":5,
			"componentType":5123,
			"count":1860,
			"type":"SCALAR"
		},
		{
			"bufferView":6,
			"componentType":5126,
			"count":372,
			"max":[
				-0.125,
				-0.03264082968235016,
				0.02985917031764984
			],
			"min":[
				-0.14564894139766693,
				-0.09235917031764984,
				-0.02985917031764984
			],
			"type":"VEC3"
		},
		{
			"bufferView":7,
			"componentType":5126,
			"count":372,
			"type":"VEC3"
		},
		{
			"bufferView":8,
			"componentType":5123,
			"count":1062,
			"type":"SCALAR"
		}
	],
	"bufferViews":[
		{
			"buffer":0,
			"byteLength":1488,
			"byteOffset":0,
			"target":34962
		},
		{
			"buffer":0,
			"byteLength":1488,
			"byteOffset":1488,
			"target":34962
		},
		{
			"buffer":0,
			"byteLength":612,
			"byteOffset":2976,
			"target":34963
		},
		{
			"buffer":0,
			"byteLength":6912,
			"byteOffset":3588,
			"target":34962
		},
		{
			"buffer":0,
			"byteLength":6912,
			"byteOffset":10500,
			"target":34962
		},
		{
			"buffer":0,
			"byteLength":3720,
			"byteOffset":17412,
			"target":34963
		},
		{
			"buffer":0,
			"byteLength":4464,
			"byteOffset":21132,
			"target":34962
		},
		{
			"buffer":0,
			"byteLength":4464,
			"byteOffset":25596,
			"target":34962
		},
		{
			"buffer":0,
			"byteLength":2124,
			"byteOffset":30060,
			"target":34963
		}
	],
	"buffers":[
		{
			"byteLength":32184,
			"uri":"PowerRelay.bin"
		}
	]
}
