{
	"asset":{
		"generator":"Khronos glTF Blender I/O v3.6.6",
		"version":"2.0"
	},
	"scene":0,
	"scenes":[
		{
			"name":"Scene",
			"nodes":[
				0
			]
		}
	],
	"nodes":[
		{
			"mesh":0,
			"name":"tank"
		}
	],
	"materials":[
		{
			"doubleSided":true,
			"name":"tank",
			"pbrMetallicRoughness":{
				"baseColorFactor":[
					1,
					1,
					1,
					1
				],
				"metallicFactor":0,
				"roughnessFactor":0
			}
		},
		{
			"doubleSided":true,
			"name":"adapter",
			"pbrMetallicRoughness":{
				"baseColorFactor":[
					0.4769901931285858,
					0.4769901931285858,
					0.4769901931285858,
					1
				],
				"metallicFactor":1,
				"roughnessFactor":1
			}
		},
		{
			"doubleSided":true,
			"name":"data-connector",
			"pbrMetallicRoughness":{
				"baseColorFactor":[
					0,
					0.02060180902481079,
					0.8000000715255737,
					1
				],
				"metallicFactor":1,
				"roughnessFactor":1
			}
		}
	],
	"meshes":[
		{
			"name":"Cylinder",
			"primitives":[
				{
					"attributes":{
						"POSITION":0,
						"NORMAL":1
					},
					"indices":2,
					"material":0
				},
				{
					"attributes":{
						"POSITION":3,
						"NORMAL":4
					},
					"indices":5,
					"material":1
				},
				{
					"attributes":{
						"POSITION":6,
						"NORMAL":7
					},
					"indices":8,
					"material":2
				}
			]
		}
	],
	"accessors":[
		{
			"bufferView":0,
			"componentType":5126,
			"count":2624,
			"max":[
				0.9930956959724426,
				0.5000000596046448,
				0.5000000596046448
			],
			"min":[
				-0.9930956959724426,
				-0.5000000596046448,
				-0.5000000596046448
			],
			"type":"VEC3"
		},
		{
			"bufferView":1,
			"componentType":5126,
			"count":2624,
			"type":"VEC3"
		},
		{
			"bufferView":2,
			"componentType":5123,
			"count":12288,
			"type":"SCALAR"
		},
		{
			"bufferView":3,
			"componentType":5126,
			"count":5556,
			"max":[
				0.9781877994537354,
				0.5231389403343201,
				0.5125675201416016
			],
			"min":[
				-0.9781877994537354,
				-0.5145611763000488,
				-0.5313975811004639
			],
			"type":"VEC3"
		},
		{
			"bufferView":4,
			"componentType":5126,
			"count":5556,
			"type":"VEC3"
		},
		{
			"bufferView":5,
			"componentType":5123,
			"count":13968,
			"type":"SCALAR"
		},
		{
			"bufferView":6,
			"componentType":5126,
			"count":372,
			"max":[
				0.02985917031764984,
				0.02985917031764984,
				-0.5313975811004639
			],
			"min":[
				-0.02985917031764984,
				-0.02985917031764984,
				-0.552046537399292
			],
			"type":"VEC3"
		},
		{
			"bufferView":7,
			"componentType":5126,
			"count":372,
			"type":"VEC3"
		},
		{
			"bufferView":8,
			"componentType":5123,
			"count":1014,
			"type":"SCALAR"
		}
	],
	"bufferViews":[
		{
			"buffer":0,
			"byteLength":31488,
			"byteOffset":0,
			"target":34962
		},
		{
			"buffer":0,
			"byteLength":31488,
			"byteOffset":31488,
			"target":34962
		},
		{
			"buffer":0,
			"byteLength":24576,
			"byteOffset":62976,
			"target":34963
		},
		{
			"buffer":0,
			"byteLength":66672,
			"byteOffset":87552,
			"target":34962
		},
		{
			"buffer":0,
			"byteLength":66672,
			"byteOffset":154224,
			"target":34962
		},
		{
			"buffer":0,
			"byteLength":27936,
			"byteOffset":220896,
			"target":34963
		},
		{
			"buffer":0,
			"byteLength":4464,
			"byteOffset":248832,
			"target":34962
		},
		{
			"buffer":0,
			"byteLength":4464,
			"byteOffset":253296,
			"target":34962
		},
		{
			"buffer":0,
			"byteLength":2028,
			"byteOffset":257760,
			"target":34963
		}
	],
	"buffers":[
		{
			"byteLength":259788,
			"uri":"FluidTank.bin"
		}
	]
}
