{
	"asset":{
		"generator":"Khronos glTF Blender I/O v3.5.30",
		"version":"2.0"
	},
	"extensionsUsed":[
		"KHR_materials_specular",
		"KHR_materials_ior"
	],
	"scene":0,
	"scenes":[
		{
			"name":"Scene",
			"nodes":[
				0,
				1,
				2,
				3,
				4,
				5,
				6
			]
		},
		{
			"name":"Scene.001"
		}
	],
	"nodes":[
		{
			"mesh":0,
			"name":"door-frame",
			"rotation":[
				0,
				-1,
				0,
				4.371138828673793e-08
			],
			"translation":[
				0,
				0.5,
				2.4602999687194824
			]
		},
		{
			"mesh":1,
			"name":"hinge-left-1-arm",
			"rotation":[
				0,
				-1,
				0,
				4.371139183945161e-08
			],
			"translation":[
				-1.199802041053772,
				0.32719892263412476,
				1.772214412689209
			]
		},
		{
			"mesh":2,
			"name":"hinge-left-2-arm",
			"rotation":[
				0,
				-1,
				0,
				4.371138828673793e-08
			],
			"translation":[
				-1.0047082901000977,
				0.32719889283180237,
				1.992549180984497
			]
		},
		{
			"mesh":3,
			"name":"door-left",
			"rotation":[
				0,
				-1,
				0,
				4.371138473402425e-08
			],
			"translation":[
				-0.5957067012786865,
				0.3271981179714203,
				2.484900712966919
			]
		},
		{
			"mesh":4,
			"name":"hinge-right-1-arm",
			"rotation":[
				0,
				-1,
				0,
				4.371139183945161e-08
			],
			"translation":[
				1.1998010873794556,
				0.32719892263412476,
				1.7722153663635254
			]
		},
		{
			"mesh":5,
			"name":"hinge-right-2-arm",
			"rotation":[
				0,
				-1,
				0,
				4.371138828673793e-08
			],
			"translation":[
				1.004707932472229,
				0.32719889283180237,
				1.992549180984497
			]
		},
		{
			"mesh":6,
			"name":"door-right",
			"rotation":[
				0,
				-1,
				0,
				4.371138828673793e-08
			],
			"translation":[
				0.5722745656967163,
				0.3271980583667755,
				2.4848995208740234
			]
		}
	],
	"materials":[
		{
			"doubleSided":true,
			"name":"door",
			"pbrMetallicRoughness":{
				"baseColorFactor":[
					0.06372056156396866,
					0.06372056156396866,
					0.06372056156396866,
					1
				],
				"metallicFactor":0,
				"roughnessFactor":1
			}
		},
		{
			"doubleSided":true,
			"name":"hinge",
			"pbrMetallicRoughness":{
				"baseColorFactor":[
					0.800000011920929,
					0.800000011920929,
					0.800000011920929,
					1
				],
				"metallicFactor":1,
				"roughnessFactor":0
			}
		},
		{
			"doubleSided":true,
			"name":"screen",
			"pbrMetallicRoughness":{
				"baseColorFactor":[
					0,
					0,
					0,
					1
				],
				"metallicFactor":0,
				"roughnessFactor":1
			}
		},
		{
			"alphaMode":"BLEND",
			"doubleSided":true,
			"extensions":{
				"KHR_materials_specular":{
					"specularColorFactor":[
						0,
						0,
						0
					]
				},
				"KHR_materials_ior":{
					"ior":1.4500000476837158
				}
			},
			"name":"Glass",
			"pbrMetallicRoughness":{
				"baseColorFactor":[
					0.6000000238418579,
					0.6499999761581421,
					0.75,
					0.4000000059604645
				],
				"metallicFactor":0,
				"roughnessFactor":0
			}
		}
	],
	"meshes":[
		{
			"name":"Cube.022",
			"primitives":[
				{
					"attributes":{
						"POSITION":0,
						"TEXCOORD_0":1,
						"NORMAL":2
					},
					"indices":3,
					"material":0
				},
				{
					"attributes":{
						"POSITION":4,
						"TEXCOORD_0":5,
						"NORMAL":6
					},
					"indices":7,
					"material":1
				},
				{
					"attributes":{
						"POSITION":8,
						"TEXCOORD_0":9,
						"NORMAL":10
					},
					"indices":11,
					"material":2
				}
			]
		},
		{
			"name":"Cylinder.014",
			"primitives":[
				{
					"attributes":{
						"POSITION":12,
						"TEXCOORD_0":13,
						"NORMAL":14
					},
					"indices":15,
					"material":1
				}
			]
		},
		{
			"name":"Cylinder.013",
			"primitives":[
				{
					"attributes":{
						"POSITION":16,
						"TEXCOORD_0":17,
						"NORMAL":18
					},
					"indices":19,
					"material":1
				}
			]
		},
		{
			"name":"Cube.021",
			"primitives":[
				{
					"attributes":{
						"POSITION":20,
						"TEXCOORD_0":21,
						"NORMAL":22
					},
					"indices":23,
					"material":0
				},
				{
					"attributes":{
						"POSITION":24,
						"TEXCOORD_0":25,
						"NORMAL":26
					},
					"indices":27,
					"material":3
				},
				{
					"attributes":{
						"POSITION":28,
						"TEXCOORD_0":29,
						"NORMAL":30
					},
					"indices":31,
					"material":1
				}
			]
		},
		{
			"name":"Cylinder.016",
			"primitives":[
				{
					"attributes":{
						"POSITION":32,
						"TEXCOORD_0":33,
						"NORMAL":34
					},
					"indices":15,
					"material":1
				}
			]
		},
		{
			"name":"Cylinder.017",
			"primitives":[
				{
					"attributes":{
						"POSITION":35,
						"TEXCOORD_0":36,
						"NORMAL":37
					},
					"indices":38,
					"material":1
				}
			]
		},
		{
			"name":"Cube.023",
			"primitives":[
				{
					"attributes":{
						"POSITION":39,
						"TEXCOORD_0":40,
						"NORMAL":41
					},
					"indices":42,
					"material":0
				},
				{
					"attributes":{
						"POSITION":43,
						"TEXCOORD_0":44,
						"NORMAL":45
					},
					"indices":27,
					"material":3
				},
				{
					"attributes":{
						"POSITION":46,
						"TEXCOORD_0":47,
						"NORMAL":48
					},
					"indices":49,
					"material":1
				}
			]
		}
	],
	"accessors":[
		{
			"bufferView":0,
			"componentType":5126,
			"count":2208,
			"max":[
				1.4000000953674316,
				1.399999976158142,
				1.024025321006775
			],
			"min":[
				-1.4000000953674316,
				-1.399999976158142,
				-0.09851080179214478
			],
			"type":"VEC3"
		},
		{
			"bufferView":1,
			"componentType":5126,
			"count":2208,
			"type":"VEC2"
		},
		{
			"bufferView":2,
			"componentType":5126,
			"count":2208,
			"type":"VEC3"
		},
		{
			"bufferView":3,
			"componentType":5123,
			"count":3684,
			"type":"SCALAR"
		},
		{
			"bufferView":4,
			"componentType":5126,
			"count":929,
			"max":[
				1.2509845495224,
				1.0094188451766968,
				0.792635440826416
			],
			"min":[
				-1.2509812116622925,
				-1.0096322298049927,
				0.5907474160194397
			],
			"type":"VEC3"
		},
		{
			"bufferView":5,
			"componentType":5126,
			"count":929,
			"type":"VEC2"
		},
		{
			"bufferView":6,
			"componentType":5126,
			"count":929,
			"type":"VEC3"
		},
		{
			"bufferView":7,
			"componentType":5123,
			"count":1770,
			"type":"SCALAR"
		},
		{
			"bufferView":8,
			"componentType":5126,
			"count":16,
			"max":[
				1.2220525741577148,
				0.38655591011047363,
				1.0182214975357056
			],
			"min":[
				-1.222052812576294,
				0.13148991763591766,
				-0.07497715950012207
			],
			"type":"VEC3"
		},
		{
			"bufferView":9,
			"componentType":5126,
			"count":16,
			"type":"VEC2"
		},
		{
			"bufferView":10,
			"componentType":5126,
			"count":16,
			"type":"VEC3"
		},
		{
			"bufferView":11,
			"componentType":5123,
			"count":24,
			"type":"SCALAR"
		},
		{
			"bufferView":12,
			"componentType":5126,
			"count":1500,
			"max":[
				0.02995981276035309,
				1.180552363395691,
				0.02995981276035309
			],
			"min":[
				-0.21945056319236755,
				-0.8356200456619263,
				-0.24385912716388702
			],
			"type":"VEC3"
		},
		{
			"bufferView":13,
			"componentType":5126,
			"count":1500,
			"type":"VEC2"
		},
		{
			"bufferView":14,
			"componentType":5126,
			"count":1500,
			"type":"VEC3"
		},
		{
			"bufferView":15,
			"componentType":5123,
			"count":3120,
			"type":"SCALAR"
		},
		{
			"bufferView":16,
			"componentType":5126,
			"count":382,
			"max":[
				0.02606271207332611,
				1.1747044324874878,
				0.05853040888905525
			],
			"min":[
				-0.43480560183525085,
				-0.8297044634819031,
				-0.48700377345085144
			],
			"type":"VEC3"
		},
		{
			"bufferView":17,
			"componentType":5126,
			"count":382,
			"type":"VEC2"
		},
		{
			"bufferView":18,
			"componentType":5126,
			"count":382,
			"type":"VEC3"
		},
		{
			"bufferView":19,
			"componentType":5123,
			"count":1182,
			"type":"SCALAR"
		},
		{
			"bufferView":20,
			"componentType":5126,
			"count":656,
			"max":[
				0.39328211545944214,
				1.4021410942077637,
				3.150614418245823e-07
			],
			"min":[
				-0.6032820343971252,
				-1.056661605834961,
				-0.06711914390325546
			],
			"type":"VEC3"
		},
		{
			"bufferView":21,
			"componentType":5126,
			"count":656,
			"type":"VEC2"
		},
		{
			"bufferView":22,
			"componentType":5126,
			"count":656,
			"type":"VEC3"
		},
		{
			"bufferView":23,
			"componentType":5123,
			"count":1596,
			"type":"SCALAR"
		},
		{
			"bufferView":24,
			"componentType":5126,
			"count":72,
			"max":[
				0.2618906497955322,
				0.8960494995117188,
				-0.01729053258895874
			],
			"min":[
				-0.48953723907470703,
				0.34500226378440857,
				-0.05306321382522583
			],
			"type":"VEC3"
		},
		{
			"bufferView":25,
			"componentType":5126,
			"count":72,
			"type":"VEC2"
		},
		{
			"bufferView":26,
			"componentType":5126,
			"count":72,
			"type":"VEC3"
		},
		{
			"bufferView":27,
			"componentType":5123,
			"count":204,
			"type":"SCALAR"
		},
		{
			"bufferView":28,
			"componentType":5126,
			"count":484,
			"max":[
				0.08642491698265076,
				1.1720998287200928,
				0.045847900211811066
			],
			"min":[
				-0.16216371953487396,
				-0.8273085355758667,
				-0.002550732111558318
			],
			"type":"VEC3"
		},
		{
			"bufferView":29,
			"componentType":5126,
			"count":484,
			"type":"VEC2"
		},
		{
			"bufferView":30,
			"componentType":5126,
			"count":484,
			"type":"VEC3"
		},
		{
			"bufferView":31,
			"componentType":5123,
			"count":1392,
			"type":"SCALAR"
		},
		{
			"bufferView":32,
			"componentType":5126,
			"count":1500,
			"max":[
				0.2194501757621765,
				1.1806200742721558,
				0.02995981276035309
			],
			"min":[
				-0.029959820210933685,
				-0.8355523347854614,
				-0.2438594549894333
			],
			"type":"VEC3"
		},
		{
			"bufferView":33,
			"componentType":5126,
			"count":1500,
			"type":"VEC2"
		},
		{
			"bufferView":34,
			"componentType":5126,
			"count":1500,
			"type":"VEC3"
		},
		{
			"bufferView":35,
			"componentType":5126,
			"count":372,
			"max":[
				0.43480515480041504,
				1.1747044324874878,
				0.05657501518726349
			],
			"min":[
				-0.02606271579861641,
				-0.8297044634819031,
				-0.4870041608810425
			],
			"type":"VEC3"
		},
		{
			"bufferView":36,
			"componentType":5126,
			"count":372,
			"type":"VEC2"
		},
		{
			"bufferView":37,
			"componentType":5126,
			"count":372,
			"type":"VEC3"
		},
		{
			"bufferView":38,
			"componentType":5123,
			"count":1176,
			"type":"SCALAR"
		},
		{
			"bufferView":39,
			"componentType":5126,
			"count":634,
			"max":[
				0.5697539448738098,
				1.4021413326263428,
				8.971491638476436e-08
			],
			"min":[
				-0.4167199730873108,
				-1.0566614866256714,
				-0.06711972504854202
			],
			"type":"VEC3"
		},
		{
			"bufferView":40,
			"componentType":5126,
			"count":634,
			"type":"VEC2"
		},
		{
			"bufferView":41,
			"componentType":5126,
			"count":634,
			"type":"VEC3"
		},
		{
			"bufferView":42,
			"componentType":5123,
			"count":1602,
			"type":"SCALAR"
		},
		{
			"bufferView":43,
			"componentType":5126,
			"count":72,
			"max":[
				0.4660997986793518,
				0.8960493206977844,
				-0.01729561574757099
			],
			"min":[
				-0.28532811999320984,
				0.3450022041797638,
				-0.05306852608919144
			],
			"type":"VEC3"
		},
		{
			"bufferView":44,
			"componentType":5126,
			"count":72,
			"type":"VEC2"
		},
		{
			"bufferView":45,
			"componentType":5126,
			"count":72,
			"type":"VEC3"
		},
		{
			"bufferView":46,
			"componentType":5126,
			"count":487,
			"max":[
				0.138727605342865,
				1.1723088026046753,
				0.04584268108010292
			],
			"min":[
				-0.10986105352640152,
				-0.8270995616912842,
				-0.002556033432483673
			],
			"type":"VEC3"
		},
		{
			"bufferView":47,
			"componentType":5126,
			"count":487,
			"type":"VEC2"
		},
		{
			"bufferView":48,
			"componentType":5126,
			"count":487,
			"type":"VEC3"
		},
		{
			"bufferView":49,
			"componentType":5123,
			"count":1404,
			"type":"SCALAR"
		}
	],
	"bufferViews":[
		{
			"buffer":0,
			"byteLength":26496,
			"byteOffset":0,
			"target":34962
		},
		{
			"buffer":0,
			"byteLength":17664,
			"byteOffset":26496,
			"target":34962
		},
		{
			"buffer":0,
			"byteLength":26496,
			"byteOffset":44160,
			"target":34962
		},
		{
			"buffer":0,
			"byteLength":7368,
			"byteOffset":70656,
			"target":34963
		},
		{
			"buffer":0,
			"byteLength":11148,
			"byteOffset":78024,
			"target":34962
		},
		{
			"buffer":0,
			"byteLength":7432,
			"byteOffset":89172,
			"target":34962
		},
		{
			"buffer":0,
			"byteLength":11148,
			"byteOffset":96604,
			"target":34962
		},
		{
			"buffer":0,
			"byteLength":3540,
			"byteOffset":107752,
			"target":34963
		},
		{
			"buffer":0,
			"byteLength":192,
			"byteOffset":111292,
			"target":34962
		},
		{
			"buffer":0,
			"byteLength":128,
			"byteOffset":111484,
			"target":34962
		},
		{
			"buffer":0,
			"byteLength":192,
			"byteOffset":111612,
			"target":34962
		},
		{
			"buffer":0,
			"byteLength":48,
			"byteOffset":111804,
			"target":34963
		},
		{
			"buffer":0,
			"byteLength":18000,
			"byteOffset":111852,
			"target":34962
		},
		{
			"buffer":0,
			"byteLength":12000,
			"byteOffset":129852,
			"target":34962
		},
		{
			"buffer":0,
			"byteLength":18000,
			"byteOffset":141852,
			"target":34962
		},
		{
			"buffer":0,
			"byteLength":6240,
			"byteOffset":159852,
			"target":34963
		},
		{
			"buffer":0,
			"byteLength":4584,
			"byteOffset":166092,
			"target":34962
		},
		{
			"buffer":0,
			"byteLength":3056,
			"byteOffset":170676,
			"target":34962
		},
		{
			"buffer":0,
			"byteLength":4584,
			"byteOffset":173732,
			"target":34962
		},
		{
			"buffer":0,
			"byteLength":2364,
			"byteOffset":178316,
			"target":34963
		},
		{
			"buffer":0,
			"byteLength":7872,
			"byteOffset":180680,
			"target":34962
		},
		{
			"buffer":0,
			"byteLength":5248,
			"byteOffset":188552,
			"target":34962
		},
		{
			"buffer":0,
			"byteLength":7872,
			"byteOffset":193800,
			"target":34962
		},
		{
			"buffer":0,
			"byteLength":3192,
			"byteOffset":201672,
			"target":34963
		},
		{
			"buffer":0,
			"byteLength":864,
			"byteOffset":204864,
			"target":34962
		},
		{
			"buffer":0,
			"byteLength":576,
			"byteOffset":205728,
			"target":34962
		},
		{
			"buffer":0,
			"byteLength":864,
			"byteOffset":206304,
			"target":34962
		},
		{
			"buffer":0,
			"byteLength":408,
			"byteOffset":207168,
			"target":34963
		},
		{
			"buffer":0,
			"byteLength":5808,
			"byteOffset":207576,
			"target":34962
		},
		{
			"buffer":0,
			"byteLength":3872,
			"byteOffset":213384,
			"target":34962
		},
		{
			"buffer":0,
			"byteLength":5808,
			"byteOffset":217256,
			"target":34962
		},
		{
			"buffer":0,
			"byteLength":2784,
			"byteOffset":223064,
			"target":34963
		},
		{
			"buffer":0,
			"byteLength":18000,
			"byteOffset":225848,
			"target":34962
		},
		{
			"buffer":0,
			"byteLength":12000,
			"byteOffset":243848,
			"target":34962
		},
		{
			"buffer":0,
			"byteLength":18000,
			"byteOffset":255848,
			"target":34962
		},
		{
			"buffer":0,
			"byteLength":4464,
			"byteOffset":273848,
			"target":34962
		},
		{
			"buffer":0,
			"byteLength":2976,
			"byteOffset":278312,
			"target":34962
		},
		{
			"buffer":0,
			"byteLength":4464,
			"byteOffset":281288,
			"target":34962
		},
		{
			"buffer":0,
			"byteLength":2352,
			"byteOffset":285752,
			"target":34963
		},
		{
			"buffer":0,
			"byteLength":7608,
			"byteOffset":288104,
			"target":34962
		},
		{
			"buffer":0,
			"byteLength":5072,
			"byteOffset":295712,
			"target":34962
		},
		{
			"buffer":0,
			"byteLength":7608,
			"byteOffset":300784,
			"target":34962
		},
		{
			"buffer":0,
			"byteLength":3204,
			"byteOffset":308392,
			"target":34963
		},
		{
			"buffer":0,
			"byteLength":864,
			"byteOffset":311596,
			"target":34962
		},
		{
			"buffer":0,
			"byteLength":576,
			"byteOffset":312460,
			"target":34962
		},
		{
			"buffer":0,
			"byteLength":864,
			"byteOffset":313036,
			"target":34962
		},
		{
			"buffer":0,
			"byteLength":5844,
			"byteOffset":313900,
			"target":34962
		},
		{
			"buffer":0,
			"byteLength":3896,
			"byteOffset":319744,
			"target":34962
		},
		{
			"buffer":0,
			"byteLength":5844,
			"byteOffset":323640,
			"target":34962
		},
		{
			"buffer":0,
			"byteLength":2808,
			"byteOffset":329484,
			"target":34963
		}
	],
	"buffers":[
		{
			"byteLength":332292,
			"uri":"Door.bin"
		}
	]
}
