{
	"asset":{
		"generator":"Khronos glTF Blender I/O v3.6.6",
		"version":"2.0"
	},
	"scene":0,
	"scenes":[
		{
			"name":"Scene",
			"nodes":[
				0,
				1
			]
		}
	],
	"nodes":[
		{
			"mesh":0,
			"name":"prop",
			"rotation":[
				-0.6988317966461182,
				-0.10788704454898834,
				0.1078970730304718,
				0.6988223791122437
			],
			"translation":[
				0,
				0,
				-0.46040794253349304
			]
		},
		{
			"mesh":1,
			"name":"Base"
		}
	],
	"materials":[
		{
			"doubleSided":true,
			"name":"Material.001",
			"pbrMetallicRoughness":{
				"baseColorFactor":[
					0.08353134244680405,
					0.08353134244680405,
					0.08353134244680405,
					1
				],
				"metallicFactor":1,
				"roughnessFactor":1
			}
		},
		{
			"doubleSided":true,
			"name":"Motor",
			"pbrMetallicRoughness":{
				"baseColorFactor":[
					0.0522179938852787,
					0.0522179938852787,
					0.0522179938852787,
					1
				],
				"metallicFactor":1,
				"roughnessFactor":1
			}
		},
		{
			"doubleSided":true,
			"name":"props",
			"pbrMetallicRoughness":{
				"baseColorFactor":[
					0.6382716298103333,
					0.6382716298103333,
					0.6382716298103333,
					1
				],
				"metallicFactor":1,
				"roughnessFactor":1
			}
		},
		{
			"doubleSided":true,
			"name":"Material",
			"pbrMetallicRoughness":{
				"baseColorFactor":[
					0.800000011920929,
					0.800000011920929,
					0.800000011920929,
					1
				],
				"metallicFactor":0,
				"roughnessFactor":0.5
			}
		},
		{
			"doubleSided":true,
			"name":"data",
			"pbrMetallicRoughness":{
				"baseColorFactor":[
					0.0013531155418604612,
					0,
					0.8000000715255737,
					1
				],
				"metallicFactor":1,
				"roughnessFactor":1
			}
		},
		{
			"doubleSided":true,
			"name":"lowvoltage",
			"pbrMetallicRoughness":{
				"baseColorFactor":[
					0.8000000715255737,
					0,
					0.0035850796848535538,
					1
				],
				"metallicFactor":1,
				"roughnessFactor":1
			}
		}
	],
	"meshes":[
		{
			"name":"Cylinder.001",
			"primitives":[
				{
					"attributes":{
						"POSITION":0,
						"NORMAL":1
					},
					"indices":2,
					"material":0
				},
				{
					"attributes":{
						"POSITION":3,
						"NORMAL":4
					},
					"indices":5,
					"material":1
				},
				{
					"attributes":{
						"POSITION":6,
						"NORMAL":7
					},
					"indices":8,
					"material":2
				}
			]
		},
		{
			"name":"Cube",
			"primitives":[
				{
					"attributes":{
						"POSITION":9,
						"NORMAL":10
					},
					"indices":11,
					"material":3
				},
				{
					"attributes":{
						"POSITION":12,
						"NORMAL":13
					},
					"indices":14,
					"material":4
				},
				{
					"attributes":{
						"POSITION":15,
						"NORMAL":16
					},
					"indices":17,
					"material":5
				}
			]
		}
	],
	"accessors":[
		{
			"bufferView":0,
			"componentType":5126,
			"count":68,
			"max":[
				0.03572661802172661,
				0.017117973417043686,
				0.040222205221652985
			],
			"min":[
				-0.03572661802172661,
				-0.017117973417043686,
				-0.040222205221652985
			],
			"type":"VEC3"
		},
		{
			"bufferView":1,
			"componentType":5126,
			"count":68,
			"type":"VEC3"
		},
		{
			"bufferView":2,
			"componentType":5123,
			"count":204,
			"type":"SCALAR"
		},
		{
			"bufferView":3,
			"componentType":5126,
			"count":384,
			"max":[
				0.21211501955986023,
				0.06119511276483536,
				0.21211501955986023
			],
			"min":[
				-0.21211501955986023,
				-0.26375696063041687,
				-0.21211501955986023
			],
			"type":"VEC3"
		},
		{
			"bufferView":4,
			"componentType":5126,
			"count":384,
			"type":"VEC3"
		},
		{
			"bufferView":5,
			"componentType":5123,
			"count":1140,
			"type":"SCALAR"
		},
		{
			"bufferView":6,
			"componentType":5126,
			"count":2824,
			"max":[
				0.8797030448913574,
				0.051967520266771317,
				0.8797032237052917
			],
			"min":[
				-0.8797030448913574,
				-0.1644037514925003,
				-0.879703164100647
			],
			"type":"VEC3"
		},
		{
			"bufferView":7,
			"componentType":5126,
			"count":2824,
			"type":"VEC3"
		},
		{
			"bufferView":8,
			"componentType":5123,
			"count":13824,
			"type":"SCALAR"
		},
		{
			"bufferView":9,
			"componentType":5126,
			"count":53,
			"max":[
				0.25,
				0.25,
				0.25
			],
			"min":[
				-0.25,
				-0.25,
				-0.25
			],
			"type":"VEC3"
		},
		{
			"bufferView":10,
			"componentType":5126,
			"count":53,
			"type":"VEC3"
		},
		{
			"bufferView":11,
			"componentType":5123,
			"count":135,
			"type":"SCALAR"
		},
		{
			"bufferView":12,
			"componentType":5126,
			"count":372,
			"max":[
				-0.04014082998037338,
				0.2706489562988281,
				0.02985917031764984
			],
			"min":[
				-0.09985917061567307,
				0.25,
				-0.02985917031764984
			],
			"type":"VEC3"
		},
		{
			"bufferView":13,
			"componentType":5126,
			"count":372,
			"type":"VEC3"
		},
		{
			"bufferView":14,
			"componentType":5123,
			"count":1014,
			"type":"SCALAR"
		},
		{
			"bufferView":15,
			"componentType":5126,
			"count":289,
			"max":[
				0.09062585234642029,
				0.2703803479671478,
				0.030625849962234497
			],
			"min":[
				0.029374148696660995,
				0.25,
				-0.030625849962234497
			],
			"type":"VEC3"
		},
		{
			"bufferView":16,
			"componentType":5126,
			"count":289,
			"type":"VEC3"
		},
		{
			"bufferView":17,
			"componentType":5123,
			"count":933,
			"type":"SCALAR"
		}
	],
	"bufferViews":[
		{
			"buffer":0,
			"byteLength":816,
			"byteOffset":0,
			"target":34962
		},
		{
			"buffer":0,
			"byteLength":816,
			"byteOffset":816,
			"target":34962
		},
		{
			"buffer":0,
			"byteLength":408,
			"byteOffset":1632,
			"target":34963
		},
		{
			"buffer":0,
			"byteLength":4608,
			"byteOffset":2040,
			"target":34962
		},
		{
			"buffer":0,
			"byteLength":4608,
			"byteOffset":6648,
			"target":34962
		},
		{
			"buffer":0,
			"byteLength":2280,
			"byteOffset":11256,
			"target":34963
		},
		{
			"buffer":0,
			"byteLength":33888,
			"byteOffset":13536,
			"target":34962
		},
		{
			"buffer":0,
			"byteLength":33888,
			"byteOffset":47424,
			"target":34962
		},
		{
			"buffer":0,
			"byteLength":27648,
			"byteOffset":81312,
			"target":34963
		},
		{
			"buffer":0,
			"byteLength":636,
			"byteOffset":108960,
			"target":34962
		},
		{
			"buffer":0,
			"byteLength":636,
			"byteOffset":109596,
			"target":34962
		},
		{
			"buffer":0,
			"byteLength":270,
			"byteOffset":110232,
			"target":34963
		},
		{
			"buffer":0,
			"byteLength":4464,
			"byteOffset":110504,
			"target":34962
		},
		{
			"buffer":0,
			"byteLength":4464,
			"byteOffset":114968,
			"target":34962
		},
		{
			"buffer":0,
			"byteLength":2028,
			"byteOffset":119432,
			"target":34963
		},
		{
			"buffer":0,
			"byteLength":3468,
			"byteOffset":121460,
			"target":34962
		},
		{
			"buffer":0,
			"byteLength":3468,
			"byteOffset":124928,
			"target":34962
		},
		{
			"buffer":0,
			"byteLength":1866,
			"byteOffset":128396,
			"target":34963
		}
	],
	"buffers":[
		{
			"byteLength":130264,
			"uri":"Propeller.bin"
		}
	]
}
