{
	"asset":{
		"generator":"Khronos glTF Blender I/O v3.6.6",
		"version":"2.0"
	},
	"scene":0,
	"scenes":[
		{
			"name":"Scene",
			"nodes":[
				0
			]
		}
	],
	"nodes":[
		{
			"mesh":0,
			"name":"box"
		}
	],
	"materials":[
		{
			"doubleSided":true,
			"name":"Material.001",
			"pbrMetallicRoughness":{
				"baseColorFactor":[
					0.4200241267681122,
					0.4200241267681122,
					0.4200241267681122,
					1
				],
				"metallicFactor":1,
				"roughnessFactor":1
			}
		},
		{
			"doubleSided":true,
			"name":"lowvoltage-connector",
			"pbrMetallicRoughness":{
				"baseColorFactor":[
					0.49692288041114807,
					0,
					0.0013217374216765165,
					1
				],
				"metallicFactor":1,
				"roughnessFactor":1
			}
		}
	],
	"meshes":[
		{
			"name":"Cube.001",
			"primitives":[
				{
					"attributes":{
						"POSITION":0,
						"NORMAL":1
					},
					"indices":2,
					"material":0
				},
				{
					"attributes":{
						"POSITION":3,
						"NORMAL":4
					},
					"indices":5,
					"material":1
				}
			]
		}
	],
	"accessors":[
		{
			"bufferView":0,
			"componentType":5126,
			"count":228,
			"max":[
				0.125,
				0.125,
				0.0625
			],
			"min":[
				-0.125,
				-0.125,
				-0.0625
			],
			"type":"VEC3"
		},
		{
			"bufferView":1,
			"componentType":5126,
			"count":228,
			"type":"VEC3"
		},
		{
			"bufferView":2,
			"componentType":5123,
			"count":594,
			"type":"SCALAR"
		},
		{
			"bufferView":3,
			"componentType":5126,
			"count":1440,
			"max":[
				0.14538034796714783,
				0.14538034796714783,
				0.030625849962234497
			],
			"min":[
				-0.14538034796714783,
				-0.14538034796714783,
				-0.030625849962234497
			],
			"type":"VEC3"
		},
		{
			"bufferView":4,
			"componentType":5126,
			"count":1440,
			"type":"VEC3"
		},
		{
			"bufferView":5,
			"componentType":5123,
			"count":4650,
			"type":"SCALAR"
		}
	],
	"bufferViews":[
		{
			"buffer":0,
			"byteLength":2736,
			"byteOffset":0,
			"target":34962
		},
		{
			"buffer":0,
			"byteLength":2736,
			"byteOffset":2736,
			"target":34962
		},
		{
			"buffer":0,
			"byteLength":1188,
			"byteOffset":5472,
			"target":34963
		},
		{
			"buffer":0,
			"byteLength":17280,
			"byteOffset":6660,
			"target":34962
		},
		{
			"buffer":0,
			"byteLength":17280,
			"byteOffset":23940,
			"target":34962
		},
		{
			"buffer":0,
			"byteLength":9300,
			"byteOffset":41220,
			"target":34963
		}
	],
	"buffers":[
		{
			"byteLength":50520,
			"uri":"PowerJunction.bin"
		}
	]
}
