{
	"asset":{
		"generator":"Khronos glTF Blender I/O v3.6.6",
		"version":"2.0"
	},
	"scene":0,
	"scenes":[
		{
			"name":"Scene",
			"nodes":[
				0
			]
		}
	],
	"nodes":[
		{
			"mesh":0,
			"name":"beacon",
			"translation":[
				0,
				0.16121935844421387,
				0
			]
		}
	],
	"materials":[
		{
			"doubleSided":true,
			"name":"body",
			"pbrMetallicRoughness":{
				"baseColorFactor":[
					0.00901800487190485,
					0.00901800487190485,
					0.00901800487190485,
					1
				],
				"metallicFactor":0,
				"roughnessFactor":1
			}
		},
		{
			"doubleSided":true,
			"name":"antenna",
			"pbrMetallicRoughness":{
				"baseColorFactor":[
					1,
					1,
					1,
					1
				],
				"metallicFactor":1,
				"roughnessFactor":0
			}
		},
		{
			"doubleSided":true,
			"name":"data-connector",
			"pbrMetallicRoughness":{
				"baseColorFactor":[
					0,
					0.011069717817008495,
					0.6618623733520508,
					1
				],
				"metallicFactor":1,
				"roughnessFactor":1
			}
		},
		{
			"doubleSided":true,
			"name":"lowvoltage",
			"pbrMetallicRoughness":{
				"baseColorFactor":[
					0.6266610622406006,
					0.0015025330940261483,
					0,
					1
				],
				"metallicFactor":1,
				"roughnessFactor":1
			}
		}
	],
	"meshes":[
		{
			"name":"Cube.001",
			"primitives":[
				{
					"attributes":{
						"POSITION":0,
						"NORMAL":1
					},
					"indices":2,
					"material":0
				},
				{
					"attributes":{
						"POSITION":3,
						"NORMAL":4
					},
					"indices":5,
					"material":1
				},
				{
					"attributes":{
						"POSITION":6,
						"NORMAL":7
					},
					"indices":8,
					"material":2
				},
				{
					"attributes":{
						"POSITION":9,
						"NORMAL":10
					},
					"indices":11,
					"material":3
				}
			]
		}
	],
	"accessors":[
		{
			"bufferView":0,
			"componentType":5126,
			"count":82,
			"max":[
				0.125,
				0.25,
				0.125
			],
			"min":[
				-0.125,
				-0.16159214079380035,
				-0.125
			],
			"type":"VEC3"
		},
		{
			"bufferView":1,
			"componentType":5126,
			"count":82,
			"type":"VEC3"
		},
		{
			"bufferView":2,
			"componentType":5123,
			"count":180,
			"type":"SCALAR"
		},
		{
			"bufferView":3,
			"componentType":5126,
			"count":108,
			"max":[
				0.058901555836200714,
				0.8459963798522949,
				0.058901555836200714
			],
			"min":[
				-0.058901555836200714,
				0.25,
				-0.058901555836200714
			],
			"type":"VEC3"
		},
		{
			"bufferView":4,
			"componentType":5126,
			"count":108,
			"type":"VEC3"
		},
		{
			"bufferView":5,
			"componentType":5123,
			"count":228,
			"type":"SCALAR"
		},
		{
			"bufferView":6,
			"componentType":5126,
			"count":373,
			"max":[
				-0.125,
				0.09235917031764984,
				0.07862501591444016
			],
			"min":[
				-0.14564894139766693,
				0.03264082968235016,
				0.018906675279140472
			],
			"type":"VEC3"
		},
		{
			"bufferView":7,
			"componentType":5126,
			"count":373,
			"type":"VEC3"
		},
		{
			"bufferView":8,
			"componentType":5123,
			"count":1065,
			"type":"SCALAR"
		},
		{
			"bufferView":9,
			"componentType":5126,
			"count":289,
			"max":[
				-0.125,
				-0.0318741500377655,
				0.07939169555902481
			],
			"min":[
				-0.14538034796714783,
				-0.0931258499622345,
				0.018139995634555817
			],
			"type":"VEC3"
		},
		{
			"bufferView":10,
			"componentType":5126,
			"count":289,
			"type":"VEC3"
		},
		{
			"bufferView":11,
			"componentType":5123,
			"count":933,
			"type":"SCALAR"
		}
	],
	"bufferViews":[
		{
			"buffer":0,
			"byteLength":984,
			"byteOffset":0,
			"target":34962
		},
		{
			"buffer":0,
			"byteLength":984,
			"byteOffset":984,
			"target":34962
		},
		{
			"buffer":0,
			"byteLength":360,
			"byteOffset":1968,
			"target":34963
		},
		{
			"buffer":0,
			"byteLength":1296,
			"byteOffset":2328,
			"target":34962
		},
		{
			"buffer":0,
			"byteLength":1296,
			"byteOffset":3624,
			"target":34962
		},
		{
			"buffer":0,
			"byteLength":456,
			"byteOffset":4920,
			"target":34963
		},
		{
			"buffer":0,
			"byteLength":4476,
			"byteOffset":5376,
			"target":34962
		},
		{
			"buffer":0,
			"byteLength":4476,
			"byteOffset":9852,
			"target":34962
		},
		{
			"buffer":0,
			"byteLength":2130,
			"byteOffset":14328,
			"target":34963
		},
		{
			"buffer":0,
			"byteLength":3468,
			"byteOffset":16460,
			"target":34962
		},
		{
			"buffer":0,
			"byteLength":3468,
			"byteOffset":19928,
			"target":34962
		},
		{
			"buffer":0,
			"byteLength":1866,
			"byteOffset":23396,
			"target":34963
		}
	],
	"buffers":[
		{
			"byteLength":25264,
			"uri":"Beacon.bin"
		}
	]
}
