{
	"asset":{
		"generator":"Khronos glTF Blender I/O v3.5.30",
		"version":"2.0"
	},
	"scene":0,
	"scenes":[
		{
			"name":"Scene",
			"nodes":[
				0
			]
		}
	],
	"nodes":[
		{
			"mesh":0,
			"name":"case",
			"rotation":[
				1,
				0,
				0,
				4.371138828673793e-08
			],
			"translation":[
				0,
				0.004617702215909958,
				0
			]
		}
	],
	"materials":[
		{
			"doubleSided":true,
			"name":"Material",
			"pbrMetallicRoughness":{
				"baseColorFactor":[
					0.800000011920929,
					0.800000011920929,
					0.800000011920929,
					1
				],
				"metallicFactor":1,
				"roughnessFactor":0
			}
		},
		{
			"doubleSided":true,
			"name":"neon",
			"pbrMetallicRoughness":{
				"baseColorFactor":[
					0.03310249000787735,
					0.03310249000787735,
					0.03310249000787735,
					1
				],
				"metallicFactor":0,
				"roughnessFactor":1
			}
		}
	],
	"meshes":[
		{
			"name":"Cube",
			"primitives":[
				{
					"attributes":{
						"POSITION":0
					},
					"indices":1,
					"material":0
				},
				{
					"attributes":{
						"POSITION":2
					},
					"indices":3,
					"material":1
				}
			]
		}
	],
	"accessors":[
		{
			"bufferView":0,
			"componentType":5126,
			"count":124,
			"max":[
				0.125,
				0.05000000074505806,
				0.5
			],
			"min":[
				-0.125,
				-0.05000000074505806,
				-0.5
			],
			"type":"VEC3"
		},
		{
			"bufferView":1,
			"componentType":5123,
			"count":564,
			"type":"SCALAR"
		},
		{
			"bufferView":2,
			"componentType":5126,
			"count":36,
			"max":[
				0.1182495728135109,
				0.01420873124152422,
				0.4911230802536011
			],
			"min":[
				-0.1182495728135109,
				-0.0344771146774292,
				-0.4911230802536011
			],
			"type":"VEC3"
		},
		{
			"bufferView":3,
			"componentType":5123,
			"count":84,
			"type":"SCALAR"
		}
	],
	"bufferViews":[
		{
			"buffer":0,
			"byteLength":1488,
			"byteOffset":0,
			"target":34962
		},
		{
			"buffer":0,
			"byteLength":1128,
			"byteOffset":1488,
			"target":34963
		},
		{
			"buffer":0,
			"byteLength":432,
			"byteOffset":2616,
			"target":34962
		},
		{
			"buffer":0,
			"byteLength":168,
			"byteOffset":3048,
			"target":34963
		}
	],
	"buffers":[
		{
			"byteLength":3216,
			"uri":"NeonLamp.bin"
		}
	]
}
