{
	"asset":{
		"generator":"Khronos glTF Blender I/O v3.6.6",
		"version":"2.0"
	},
	"scene":0,
	"scenes":[
		{
			"name":"Scene",
			"nodes":[
				0,
				1
			]
		}
	],
	"nodes":[
		{
			"mesh":0,
			"name":"spike"
		},
		{
			"mesh":1,
			"name":"thruster"
		}
	],
	"materials":[
		{
			"doubleSided":true,
			"name":"thruster-nozzle",
			"pbrMetallicRoughness":{
				"baseColorFactor":[
					0.006370242219418287,
					0.006370242219418287,
					0.006370242219418287,
					1
				],
				"metallicFactor":0,
				"roughnessFactor":1
			}
		},
		{
			"doubleSided":true,
			"name":"thruster-body",
			"pbrMetallicRoughness":{
				"baseColorFactor":[
					1,
					1,
					1,
					1
				],
				"metallicFactor":1,
				"roughnessFactor":1
			}
		},
		{
			"doubleSided":true,
			"name":"fluid",
			"pbrMetallicRoughness":{
				"baseColorFactor":[
					0.4479789137840271,
					0.4479789137840271,
					0.4479789137840271,
					1
				],
				"metallicFactor":1,
				"roughnessFactor":1
			}
		},
		{
			"doubleSided":true,
			"name":"data",
			"pbrMetallicRoughness":{
				"baseColorFactor":[
					0,
					0.01711467280983925,
					0.6266624331474304,
					1
				],
				"metallicFactor":1,
				"roughnessFactor":1
			}
		},
		{
			"doubleSided":true,
			"name":"highvoltage",
			"pbrMetallicRoughness":{
				"baseColorFactor":[
					0.8000000715255737,
					0.25330787897109985,
					0.034126732498407364,
					1
				],
				"metallicFactor":1,
				"roughnessFactor":1
			}
		}
	],
	"meshes":[
		{
			"name":"Cylinder.002",
			"primitives":[
				{
					"attributes":{
						"POSITION":0,
						"NORMAL":1
					},
					"indices":2,
					"material":0
				},
				{
					"attributes":{
						"POSITION":3,
						"NORMAL":4
					},
					"indices":5,
					"material":1
				}
			]
		},
		{
			"name":"Cylinder.001",
			"primitives":[
				{
					"attributes":{
						"POSITION":6,
						"NORMAL":7
					},
					"indices":8,
					"material":0
				},
				{
					"attributes":{
						"POSITION":9,
						"NORMAL":10
					},
					"indices":11,
					"material":1
				},
				{
					"attributes":{
						"POSITION":12,
						"NORMAL":13
					},
					"indices":14,
					"material":2
				},
				{
					"attributes":{
						"POSITION":15,
						"NORMAL":16
					},
					"indices":17,
					"material":3
				},
				{
					"attributes":{
						"POSITION":18,
						"NORMAL":19
					},
					"indices":20,
					"material":4
				}
			]
		}
	],
	"accessors":[
		{
			"bufferView":0,
			"componentType":5126,
			"count":336,
			"max":[
				0.17036733031272888,
				0.17036759853363037,
				0.060570091009140015
			],
			"min":[
				-0.17036786675453186,
				-0.17036758363246918,
				-0.08970410376787186
			],
			"type":"VEC3"
		},
		{
			"bufferView":1,
			"componentType":5126,
			"count":336,
			"type":"VEC3"
		},
		{
			"bufferView":2,
			"componentType":5123,
			"count":1632,
			"type":"SCALAR"
		},
		{
			"bufferView":3,
			"componentType":5126,
			"count":84,
			"max":[
				0.2087744027376175,
				0.20877450704574585,
				0.06078130379319191
			],
			"min":[
				-0.20877456665039062,
				-0.20877450704574585,
				0.06057007610797882
			],
			"type":"VEC3"
		},
		{
			"bufferView":4,
			"componentType":5126,
			"count":84,
			"type":"VEC3"
		},
		{
			"bufferView":5,
			"componentType":5123,
			"count":252,
			"type":"SCALAR"
		},
		{
			"bufferView":6,
			"componentType":5126,
			"count":84,
			"max":[
				0.1875104010105133,
				0.18751050531864166,
				0.11189962923526764
			],
			"min":[
				-0.18751057982444763,
				-0.18751050531864166,
				0.005878059193491936
			],
			"type":"VEC3"
		},
		{
			"bufferView":7,
			"componentType":5126,
			"count":84,
			"type":"VEC3"
		},
		{
			"bufferView":8,
			"componentType":5123,
			"count":252,
			"type":"SCALAR"
		},
		{
			"bufferView":9,
			"componentType":5126,
			"count":630,
			"max":[
				0.25,
				0.25,
				0.4139299988746643
			],
			"min":[
				-0.2499999850988388,
				-0.25,
				0.005878059193491936
			],
			"type":"VEC3"
		},
		{
			"bufferView":10,
			"componentType":5126,
			"count":630,
			"type":"VEC3"
		},
		{
			"bufferView":11,
			"componentType":5123,
			"count":3648,
			"type":"SCALAR"
		},
		{
			"bufferView":12,
			"componentType":5126,
			"count":9216,
			"max":[
				0.24989652633666992,
				0.12489652633666992,
				0.45176368951797485
			],
			"min":[
				-0.24989652633666992,
				-0.12489652633666992,
				0.41392993927001953
			],
			"type":"VEC3"
		},
		{
			"bufferView":13,
			"componentType":5126,
			"count":9216,
			"type":"VEC3"
		},
		{
			"bufferView":14,
			"componentType":5123,
			"count":21624,
			"type":"SCALAR"
		},
		{
			"bufferView":15,
			"componentType":5126,
			"count":376,
			"max":[
				0.02985917031764984,
				0.2048591673374176,
				0.43457913398742676
			],
			"min":[
				-0.02985917031764984,
				0.14514082670211792,
				0.41393017768859863
			],
			"type":"VEC3"
		},
		{
			"bufferView":16,
			"componentType":5126,
			"count":376,
			"type":"VEC3"
		},
		{
			"bufferView":17,
			"componentType":5123,
			"count":1020,
			"type":"SCALAR"
		},
		{
			"bufferView":18,
			"componentType":5126,
			"count":696,
			"max":[
				0.07035043835639954,
				-0.10464955866336823,
				0.45564964413642883
			],
			"min":[
				-0.07035043835639954,
				-0.2453504353761673,
				0.41393032670021057
			],
			"type":"VEC3"
		},
		{
			"bufferView":19,
			"componentType":5126,
			"count":696,
			"type":"VEC3"
		},
		{
			"bufferView":20,
			"componentType":5123,
			"count":2148,
			"type":"SCALAR"
		}
	],
	"bufferViews":[
		{
			"buffer":0,
			"byteLength":4032,
			"byteOffset":0,
			"target":34962
		},
		{
			"buffer":0,
			"byteLength":4032,
			"byteOffset":4032,
			"target":34962
		},
		{
			"buffer":0,
			"byteLength":3264,
			"byteOffset":8064,
			"target":34963
		},
		{
			"buffer":0,
			"byteLength":1008,
			"byteOffset":11328,
			"target":34962
		},
		{
			"buffer":0,
			"byteLength":1008,
			"byteOffset":12336,
			"target":34962
		},
		{
			"buffer":0,
			"byteLength":504,
			"byteOffset":13344,
			"target":34963
		},
		{
			"buffer":0,
			"byteLength":1008,
			"byteOffset":13848,
			"target":34962
		},
		{
			"buffer":0,
			"byteLength":1008,
			"byteOffset":14856,
			"target":34962
		},
		{
			"buffer":0,
			"byteLength":504,
			"byteOffset":15864,
			"target":34963
		},
		{
			"buffer":0,
			"byteLength":7560,
			"byteOffset":16368,
			"target":34962
		},
		{
			"buffer":0,
			"byteLength":7560,
			"byteOffset":23928,
			"target":34962
		},
		{
			"buffer":0,
			"byteLength":7296,
			"byteOffset":31488,
			"target":34963
		},
		{
			"buffer":0,
			"byteLength":110592,
			"byteOffset":38784,
			"target":34962
		},
		{
			"buffer":0,
			"byteLength":110592,
			"byteOffset":149376,
			"target":34962
		},
		{
			"buffer":0,
			"byteLength":43248,
			"byteOffset":259968,
			"target":34963
		},
		{
			"buffer":0,
			"byteLength":4512,
			"byteOffset":303216,
			"target":34962
		},
		{
			"buffer":0,
			"byteLength":4512,
			"byteOffset":307728,
			"target":34962
		},
		{
			"buffer":0,
			"byteLength":2040,
			"byteOffset":312240,
			"target":34963
		},
		{
			"buffer":0,
			"byteLength":8352,
			"byteOffset":314280,
			"target":34962
		},
		{
			"buffer":0,
			"byteLength":8352,
			"byteOffset":322632,
			"target":34962
		},
		{
			"buffer":0,
			"byteLength":4296,
			"byteOffset":330984,
			"target":34963
		}
	],
	"buffers":[
		{
			"byteLength":335280,
			"uri":"SmallThruster.bin"
		}
	]
}
